<svg xmlns="http://www.w3.org/2000/svg" xmlns:xlink="http://www.w3.org/1999/xlink" width="48" zoomAndPan="magnify" viewBox="0 0 36 36.000001" height="48" preserveAspectRatio="xMidYMid meet" version="1.0"><defs><g/><clipPath id="id1"><path d="M 7 3 L 28.941406 3 L 28.941406 32.84375 L 7 32.84375 Z M 7 3 " clip-rule="nonzero"/></clipPath><clipPath id="id2"><path d="M 6.320312 2.195312 L 28.941406 2.195312 L 28.941406 32.84375 L 6.320312 32.84375 Z M 6.320312 2.195312 " clip-rule="nonzero"/></clipPath><clipPath id="id3"><path d="M 8.523438 4.601562 L 26.769531 4.601562 L 26.769531 22.847656 L 8.523438 22.847656 Z M 8.523438 4.601562 " clip-rule="nonzero"/></clipPath><clipPath id="id4"><path d="M 0.488281 24 L 2 24 L 2 27 L 0.488281 27 Z M 0.488281 24 " clip-rule="nonzero"/></clipPath></defs><path fill="#2941ab" d="M 20.894531 9.703125 C 19.230469 9.703125 17.878906 10.871094 17.878906 12.3125 C 17.878906 10.871094 16.527344 9.703125 14.863281 9.703125 C 13.464844 9.703125 11.996094 10.855469 11.914062 12.230469 C 11.800781 14.066406 13.15625 15.785156 14.417969 16.980469 C 15.320312 17.835938 16.339844 18.632812 17.378906 19.324219 C 17.417969 19.351562 17.816406 19.652344 17.878906 19.617188 C 20.351562 18.25 23.910156 15.4375 23.910156 12.3125 C 23.910156 10.871094 22.558594 9.703125 20.894531 9.703125 Z M 20.894531 9.703125 " fill-opacity="1" fill-rule="nonzero"/><path fill="#0c008f" d="M 17.863281 20.023438 C 17.699219 20.023438 17.550781 19.949219 17.175781 19.675781 L 17.148438 19.652344 C 16.042969 18.917969 15.03125 18.117188 14.136719 17.269531 C 12.292969 15.519531 11.410156 13.816406 11.507812 12.207031 C 11.601562 10.6875 13.199219 9.300781 14.863281 9.300781 C 16.164062 9.300781 17.296875 9.945312 17.875 10.890625 C 18.035156 10.625 18.246094 10.382812 18.492188 10.167969 C 19.136719 9.609375 19.988281 9.300781 20.894531 9.300781 C 21.796875 9.300781 22.652344 9.609375 23.292969 10.167969 C 23.953125 10.738281 24.316406 11.5 24.316406 12.3125 C 24.316406 16.3125 19.117188 19.390625 18.074219 19.96875 C 18.011719 20.003906 17.941406 20.023438 17.863281 20.023438 Z M 14.863281 10.105469 C 13.621094 10.105469 12.386719 11.148438 12.316406 12.253906 C 12.214844 13.957031 13.554688 15.605469 14.699219 16.691406 C 15.546875 17.496094 16.550781 18.289062 17.605469 18.992188 C 17.613281 19 17.632812 19.011719 17.65625 19.027344 C 17.742188 19.09375 17.808594 19.136719 17.855469 19.167969 C 20.503906 17.664062 23.503906 15.007812 23.503906 12.3125 C 23.503906 11.734375 23.242188 11.183594 22.761719 10.769531 C 22.265625 10.339844 21.601562 10.105469 20.894531 10.105469 C 20.1875 10.105469 19.523438 10.339844 19.027344 10.769531 C 18.546875 11.183594 18.28125 11.734375 18.28125 12.3125 C 18.28125 12.535156 18.101562 12.714844 17.878906 12.714844 C 17.652344 12.714844 17.472656 12.535156 17.472656 12.3125 C 17.472656 11.09375 16.300781 10.105469 14.863281 10.105469 Z M 14.863281 10.105469 " fill-opacity="1" fill-rule="nonzero"/><g clip-path="url(#id1)"><path fill="#2941ab" d="M 25.398438 6.300781 C 21.261719 2.214844 14.558594 2.214844 10.421875 6.300781 C 6.648438 10.023438 6.316406 15.855469 9.421875 19.953125 L 17.910156 32.4375 L 26.152344 20.261719 C 27.746094 18.316406 28.527344 15.9375 28.496094 13.566406 C 28.464844 10.933594 27.433594 8.308594 25.398438 6.300781 Z M 24.179688 19.886719 C 24.058594 20.003906 23.9375 20.117188 23.816406 20.226562 C 21.910156 21.910156 19.441406 22.636719 17.054688 22.410156 C 15.136719 22.226562 13.273438 21.433594 11.78125 20.023438 C 11.734375 19.976562 11.6875 19.933594 11.640625 19.886719 C 8.179688 16.46875 8.179688 10.921875 11.640625 7.503906 C 15.101562 4.085938 20.71875 4.085938 24.179688 7.503906 C 25.882812 9.1875 26.746094 11.382812 26.773438 13.589844 C 26.800781 15.863281 25.9375 18.148438 24.179688 19.886719 Z M 24.179688 19.886719 " fill-opacity="1" fill-rule="nonzero"/></g><g clip-path="url(#id2)"><path fill="#0c008f" d="M 17.910156 32.835938 C 17.773438 32.835938 17.648438 32.769531 17.570312 32.660156 L 9.085938 20.175781 C 9.085938 20.175781 9.082031 20.171875 9.082031 20.171875 C 7.523438 18.105469 6.761719 15.542969 6.9375 12.960938 C 7.117188 10.339844 8.253906 7.875 10.136719 6.015625 C 12.210938 3.964844 14.972656 2.835938 17.910156 2.835938 C 20.847656 2.835938 23.609375 3.964844 25.683594 6.015625 C 27.722656 8.03125 28.867188 10.710938 28.902344 13.5625 C 28.933594 16.082031 28.074219 18.546875 26.480469 20.5 L 18.246094 32.660156 C 18.171875 32.769531 18.042969 32.835938 17.910156 32.835938 Z M 9.773438 19.75 L 17.90625 31.714844 L 25.816406 20.039062 C 25.824219 20.027344 25.832031 20.019531 25.839844 20.007812 C 27.320312 18.199219 28.121094 15.914062 28.089844 13.574219 C 28.058594 10.929688 27 8.449219 25.113281 6.582031 C 23.1875 4.683594 20.628906 3.636719 17.910156 3.636719 C 15.191406 3.636719 12.632812 4.683594 10.707031 6.582031 C 7.148438 10.097656 6.734375 15.742188 9.75 19.710938 C 9.757812 19.726562 9.765625 19.738281 9.773438 19.75 Z M 17.90625 22.851562 C 17.609375 22.851562 17.3125 22.835938 17.015625 22.808594 C 14.925781 22.609375 13.015625 21.746094 11.5 20.3125 C 11.453125 20.265625 11.402344 20.21875 11.355469 20.171875 C 7.738281 16.601562 7.738281 10.789062 11.355469 7.21875 C 13.105469 5.492188 15.433594 4.539062 17.910156 4.539062 C 20.386719 4.539062 22.714844 5.492188 24.464844 7.21875 C 26.183594 8.917969 27.148438 11.179688 27.179688 13.582031 C 27.210938 16.070312 26.246094 18.410156 24.464844 20.171875 C 24.351562 20.285156 24.226562 20.398438 24.085938 20.523438 C 22.386719 22.027344 20.195312 22.851562 17.90625 22.851562 Z M 17.910156 5.339844 C 15.648438 5.339844 13.523438 6.207031 11.925781 7.785156 C 8.628906 11.042969 8.628906 16.34375 11.925781 19.601562 C 11.972656 19.644531 12.015625 19.691406 12.058594 19.730469 C 13.445312 21.042969 15.183594 21.828125 17.09375 22.011719 C 17.363281 22.039062 17.636719 22.050781 17.90625 22.050781 C 19.992188 22.050781 21.996094 21.296875 23.546875 19.925781 C 23.671875 19.8125 23.785156 19.707031 23.890625 19.605469 C 25.515625 18 26.394531 15.863281 26.367188 13.59375 C 26.339844 11.398438 25.460938 9.335938 23.890625 7.785156 C 22.292969 6.207031 20.167969 5.339844 17.910156 5.339844 Z M 17.910156 5.339844 " fill-opacity="1" fill-rule="nonzero"/></g><path fill="#0c008f" d="M 24.574219 16.734375 C 24.539062 16.734375 24.5 16.726562 24.460938 16.710938 C 24.316406 16.648438 24.246094 16.480469 24.308594 16.335938 C 24.320312 16.3125 24.332031 16.28125 24.351562 16.246094 C 24.421875 16.105469 24.570312 15.8125 24.746094 15.101562 C 24.785156 14.949219 24.941406 14.855469 25.097656 14.890625 C 25.253906 14.929688 25.347656 15.085938 25.308594 15.238281 C 25.117188 16.007812 24.949219 16.34375 24.871094 16.503906 C 24.859375 16.527344 24.847656 16.542969 24.84375 16.558594 C 24.792969 16.667969 24.6875 16.734375 24.574219 16.734375 Z M 24.574219 16.734375 " fill-opacity="1" fill-rule="nonzero"/><path fill="#0c008f" d="M 25.351562 13.679688 C 25.34375 13.679688 25.335938 13.679688 25.332031 13.679688 C 25.171875 13.667969 25.050781 13.53125 25.0625 13.375 C 25.347656 9.273438 21.238281 7.703125 21.195312 7.6875 C 21.046875 7.632812 20.972656 7.464844 21.027344 7.316406 C 21.082031 7.171875 21.25 7.09375 21.402344 7.152344 C 21.445312 7.167969 25.953125 8.890625 25.640625 13.414062 C 25.628906 13.566406 25.503906 13.679688 25.351562 13.679688 Z M 25.351562 13.679688 " fill-opacity="1" fill-rule="nonzero"/><path fill="#2941ab" d="M 14.320312 24.875 L 16.136719 27.601562 " fill-opacity="1" fill-rule="nonzero"/><path fill="#0c008f" d="M 16.136719 27.890625 C 16.042969 27.890625 15.953125 27.84375 15.894531 27.761719 L 14.078125 25.03125 C 13.992188 24.898438 14.027344 24.722656 14.164062 24.636719 C 14.296875 24.546875 14.476562 24.585938 14.5625 24.714844 L 16.378906 27.445312 C 16.46875 27.578125 16.429688 27.753906 16.296875 27.839844 C 16.25 27.875 16.191406 27.890625 16.136719 27.890625 Z M 16.136719 27.890625 " fill-opacity="1" fill-rule="nonzero"/><path fill="#2941ab" d="M 13.265625 23.167969 L 13.492188 23.519531 " fill-opacity="1" fill-rule="nonzero"/><path fill="#0c008f" d="M 13.492188 23.804688 C 13.394531 23.804688 13.300781 23.757812 13.246094 23.671875 L 13.019531 23.324219 C 12.933594 23.191406 12.972656 23.015625 13.109375 22.929688 C 13.242188 22.84375 13.421875 22.882812 13.507812 23.015625 L 13.734375 23.363281 C 13.820312 23.496094 13.78125 23.675781 13.648438 23.757812 C 13.597656 23.789062 13.542969 23.804688 13.492188 23.804688 Z M 13.492188 23.804688 " fill-opacity="1" fill-rule="nonzero"/><g clip-path="url(#id3)"><path fill="#f8f9f0" d="M 17.644531 4.601562 C 12.609375 4.601562 8.523438 8.6875 8.523438 13.722656 C 8.523438 18.761719 12.609375 22.847656 17.644531 22.847656 C 22.683594 22.847656 26.769531 18.761719 26.769531 13.722656 C 26.769531 8.6875 22.683594 4.601562 17.644531 4.601562 " fill-opacity="1" fill-rule="nonzero"/></g><path fill="#1cd760" d="M 20.5 17.441406 L 19.234375 17.441406 L 19.234375 15.636719 L 20.5 15.636719 Z M 18.820312 17.441406 L 17.554688 17.441406 L 17.554688 14.148438 L 18.820312 14.148438 Z M 17.144531 17.441406 L 15.875 17.441406 L 15.875 12.28125 L 17.144531 12.28125 Z M 15.464844 17.441406 L 14.199219 17.441406 L 14.199219 10.789062 L 15.464844 10.789062 Z M 17.351562 7.980469 C 14.171875 7.980469 11.59375 10.558594 11.59375 13.738281 C 11.59375 16.917969 14.171875 19.492188 17.351562 19.492188 C 20.53125 19.492188 23.109375 16.917969 23.109375 13.738281 C 23.109375 10.558594 20.53125 7.980469 17.351562 7.980469 " fill-opacity="1" fill-rule="nonzero"/><g clip-path="url(#id4)"><g fill="#ffffff" fill-opacity="1"><g transform="translate(-1.227386, 26.604846)"><g><path d="M 1.21875 -2.453125 C 1.414062 -2.453125 1.59375 -2.414062 1.75 -2.34375 C 1.914062 -2.28125 2.039062 -2.1875 2.125 -2.0625 C 2.21875 -1.9375 2.265625 -1.800781 2.265625 -1.65625 L 2.265625 -0.078125 C 2.265625 -0.0234375 2.238281 0 2.1875 0 L 1.6875 0 C 1.632812 0 1.609375 -0.0234375 1.609375 -0.078125 L 1.609375 -0.1875 C 1.609375 -0.207031 1.601562 -0.21875 1.59375 -0.21875 C 1.582031 -0.21875 1.578125 -0.210938 1.578125 -0.203125 C 1.429688 -0.046875 1.210938 0.03125 0.921875 0.03125 C 0.679688 0.03125 0.488281 -0.0234375 0.34375 -0.140625 C 0.195312 -0.253906 0.125 -0.429688 0.125 -0.671875 C 0.125 -0.910156 0.207031 -1.097656 0.375 -1.234375 C 0.539062 -1.367188 0.78125 -1.4375 1.09375 -1.4375 L 1.578125 -1.4375 C 1.597656 -1.4375 1.609375 -1.441406 1.609375 -1.453125 L 1.609375 -1.5625 C 1.609375 -1.664062 1.570312 -1.742188 1.5 -1.796875 C 1.4375 -1.859375 1.347656 -1.890625 1.234375 -1.890625 C 1.140625 -1.890625 1.0625 -1.875 1 -1.84375 C 0.9375 -1.8125 0.894531 -1.765625 0.875 -1.703125 C 0.851562 -1.660156 0.820312 -1.640625 0.78125 -1.640625 L 0.25 -1.71875 C 0.226562 -1.71875 0.207031 -1.722656 0.1875 -1.734375 C 0.175781 -1.742188 0.171875 -1.757812 0.171875 -1.78125 C 0.191406 -1.90625 0.25 -2.019531 0.34375 -2.125 C 0.4375 -2.226562 0.554688 -2.304688 0.703125 -2.359375 C 0.859375 -2.421875 1.03125 -2.453125 1.21875 -2.453125 Z M 1.125 -0.453125 C 1.257812 -0.453125 1.375 -0.488281 1.46875 -0.5625 C 1.5625 -0.632812 1.609375 -0.726562 1.609375 -0.84375 L 1.609375 -1 C 1.609375 -1.019531 1.597656 -1.03125 1.578125 -1.03125 L 1.234375 -1.03125 C 1.097656 -1.03125 0.988281 -1.003906 0.90625 -0.953125 C 0.820312 -0.898438 0.78125 -0.828125 0.78125 -0.734375 C 0.78125 -0.648438 0.8125 -0.582031 0.875 -0.53125 C 0.9375 -0.476562 1.019531 -0.453125 1.125 -0.453125 Z M 1.125 -0.453125 "/></g></g></g></g></svg>