<svg xmlns="http://www.w3.org/2000/svg" xmlns:xlink="http://www.w3.org/1999/xlink" width="100" zoomAndPan="magnify" viewBox="0 0 75 74.999997" height="100" preserveAspectRatio="xMidYMid meet" version="1.0"><defs><clipPath id="id1"><path d="M 12 1 L 64.246094 1 L 64.246094 72.75 L 12 72.75 Z M 12 1 " clip-rule="nonzero"/></clipPath><clipPath id="id2"><path d="M 16.230469 5.710938 L 60.480469 5.710938 L 60.480469 49.960938 L 16.230469 49.960938 Z M 16.230469 5.710938 " clip-rule="nonzero"/></clipPath></defs><path fill="#2941ab" d="M 45.304688 17.816406 C 41.382812 17.816406 38.203125 20.589844 38.203125 24.011719 C 38.203125 20.589844 35.027344 17.816406 31.105469 17.816406 C 27.820312 17.816406 24.363281 20.550781 24.164062 23.816406 C 23.898438 28.175781 27.09375 32.253906 30.058594 35.089844 C 32.1875 37.125 34.582031 39.015625 37.027344 40.65625 C 37.125 40.722656 38.058594 41.4375 38.203125 41.355469 C 44.027344 38.105469 52.40625 31.429688 52.40625 24.011719 C 52.40625 20.589844 49.226562 17.816406 45.304688 17.816406 Z M 45.304688 17.816406 " fill-opacity="1" fill-rule="nonzero"/><path fill="#0c008f" d="M 38.171875 42.3125 C 37.785156 42.3125 37.4375 42.132812 36.550781 41.484375 L 36.484375 41.4375 C 33.886719 39.691406 31.5 37.785156 29.398438 35.777344 C 25.058594 31.625 22.976562 27.582031 23.210938 23.757812 C 23.429688 20.152344 27.191406 16.863281 31.105469 16.863281 C 34.167969 16.863281 36.839844 18.390625 38.199219 20.632812 C 38.578125 20.007812 39.066406 19.429688 39.652344 18.914062 C 41.167969 17.59375 43.175781 16.863281 45.300781 16.863281 C 45.304688 16.863281 45.304688 16.863281 45.304688 16.863281 C 47.433594 16.863281 49.4375 17.59375 50.953125 18.914062 C 52.507812 20.269531 53.359375 22.078125 53.359375 24.011719 C 53.359375 33.507812 41.121094 40.816406 38.667969 42.183594 C 38.523438 42.269531 38.347656 42.3125 38.171875 42.3125 Z M 31.105469 18.765625 C 28.1875 18.765625 25.277344 21.25 25.117188 23.875 C 24.871094 27.910156 28.027344 31.828125 30.71875 34.40625 C 32.714844 36.3125 35.078125 38.199219 37.5625 39.867188 C 37.582031 39.882812 37.621094 39.910156 37.679688 39.953125 C 37.890625 40.105469 38.042969 40.214844 38.15625 40.289062 C 44.386719 36.710938 51.449219 30.410156 51.449219 24.011719 C 51.449219 22.636719 50.828125 21.332031 49.695312 20.347656 C 48.527344 19.328125 46.96875 18.765625 45.304688 18.765625 C 45.304688 18.765625 45.304688 18.765625 45.300781 18.765625 C 43.636719 18.765625 42.078125 19.328125 40.914062 20.347656 C 39.78125 21.332031 39.15625 22.636719 39.15625 24.011719 C 39.15625 24.535156 38.730469 24.960938 38.203125 24.960938 C 37.675781 24.960938 37.25 24.535156 37.25 24.011719 C 37.25 21.121094 34.492188 18.765625 31.105469 18.765625 Z M 31.105469 18.765625 " fill-opacity="1" fill-rule="nonzero"/><path fill="#2941ab" d="M 55.90625 9.734375 C 46.171875 0.0390625 30.386719 0.0390625 20.652344 9.734375 C 11.773438 18.574219 10.992188 32.425781 18.300781 42.148438 L 38.277344 71.78125 L 57.683594 42.878906 C 61.433594 38.261719 63.269531 32.617188 63.199219 26.992188 C 63.125 20.734375 60.695312 14.507812 55.90625 9.734375 Z M 53.035156 41.992188 C 52.757812 42.269531 52.472656 42.535156 52.179688 42.796875 C 47.695312 46.792969 41.886719 48.523438 36.265625 47.984375 C 31.753906 47.546875 27.359375 45.660156 23.851562 42.3125 C 23.742188 42.207031 23.628906 42.097656 23.519531 41.992188 C 15.375 33.871094 15.375 20.710938 23.519531 12.59375 C 31.671875 4.476562 44.886719 4.476562 53.035156 12.59375 C 57.042969 16.589844 59.078125 21.804688 59.140625 27.039062 C 59.210938 32.441406 57.175781 37.867188 53.035156 41.992188 Z M 53.035156 41.992188 " fill-opacity="1" fill-rule="nonzero"/><g clip-path="url(#id1)"><path fill="#0c008f" d="M 38.277344 72.734375 C 37.957031 72.734375 37.660156 72.574219 37.484375 72.3125 L 17.507812 42.675781 C 17.503906 42.671875 17.503906 42.671875 17.5 42.667969 C 13.832031 37.761719 12.039062 31.683594 12.453125 25.546875 C 12.875 19.328125 15.546875 13.472656 19.976562 9.0625 C 24.867188 4.191406 31.367188 1.511719 38.28125 1.511719 C 45.191406 1.511719 51.691406 4.191406 56.582031 9.0625 C 61.382812 13.84375 64.070312 20.207031 64.15625 26.980469 C 64.230469 32.960938 62.207031 38.804688 58.457031 43.445312 L 39.070312 72.308594 C 38.890625 72.574219 38.59375 72.730469 38.277344 72.734375 Z M 19.128906 41.667969 L 38.273438 70.074219 L 56.890625 42.351562 C 56.90625 42.328125 56.925781 42.304688 56.941406 42.28125 C 60.429688 37.980469 62.3125 32.554688 62.246094 27 C 62.167969 20.730469 59.675781 14.835938 55.230469 10.40625 C 50.703125 5.898438 44.683594 3.414062 38.28125 3.414062 C 31.875 3.414062 25.855469 5.898438 21.328125 10.40625 C 12.949219 18.75 11.976562 32.148438 19.066406 41.578125 C 19.089844 41.605469 19.109375 41.636719 19.128906 41.667969 Z M 38.273438 49.03125 C 37.574219 49.03125 36.871094 48.996094 36.175781 48.929688 C 31.25 48.453125 26.761719 46.402344 23.191406 42.996094 C 23.078125 42.890625 22.960938 42.777344 22.847656 42.664062 C 14.339844 34.1875 14.339844 20.398438 22.847656 11.921875 C 26.96875 7.816406 32.449219 5.554688 38.277344 5.554688 C 44.109375 5.554688 49.589844 7.816406 53.710938 11.921875 C 57.757812 15.953125 60.027344 21.320312 60.097656 27.027344 C 60.171875 32.933594 57.902344 38.488281 53.710938 42.664062 C 53.441406 42.933594 53.148438 43.210938 52.816406 43.503906 C 48.820312 47.066406 43.65625 49.03125 38.273438 49.03125 Z M 38.277344 7.457031 C 32.960938 7.457031 27.957031 9.519531 24.195312 13.265625 C 16.433594 21 16.433594 33.585938 24.195312 41.316406 C 24.300781 41.421875 24.40625 41.523438 24.511719 41.625 C 27.769531 44.730469 31.867188 46.601562 36.359375 47.039062 C 36.992188 47.097656 37.636719 47.128906 38.273438 47.128906 C 43.183594 47.128906 47.894531 45.339844 51.542969 42.085938 C 51.847656 41.816406 52.113281 41.566406 52.355469 41.320312 C 56.183594 37.507812 58.253906 32.441406 58.1875 27.050781 C 58.125 21.839844 56.054688 16.945312 52.359375 13.265625 C 48.597656 9.519531 43.597656 7.457031 38.277344 7.457031 Z M 38.277344 7.457031 " fill-opacity="1" fill-rule="nonzero"/></g><path fill="#0c008f" d="M 53.96875 34.507812 C 53.878906 34.507812 53.789062 34.488281 53.703125 34.453125 C 53.355469 34.304688 53.195312 33.90625 53.34375 33.558594 C 53.367188 33.503906 53.398438 33.4375 53.441406 33.351562 C 53.609375 33.015625 53.960938 32.316406 54.375 30.628906 C 54.464844 30.265625 54.835938 30.042969 55.199219 30.132812 C 55.566406 30.222656 55.789062 30.589844 55.699219 30.957031 C 55.246094 32.785156 54.851562 33.574219 54.664062 33.957031 C 54.636719 34.011719 54.613281 34.054688 54.597656 34.09375 C 54.484375 34.351562 54.234375 34.507812 53.96875 34.507812 Z M 53.96875 34.507812 " fill-opacity="1" fill-rule="nonzero"/><path fill="#0c008f" d="M 55.796875 27.257812 C 55.78125 27.257812 55.761719 27.257812 55.746094 27.257812 C 55.371094 27.230469 55.089844 26.90625 55.113281 26.53125 C 55.785156 16.796875 46.113281 13.066406 46.015625 13.027344 C 45.664062 12.898438 45.484375 12.503906 45.617188 12.152344 C 45.75 11.804688 46.144531 11.625 46.496094 11.757812 C 46.601562 11.796875 57.214844 15.890625 56.476562 26.625 C 56.449219 26.984375 56.152344 27.257812 55.796875 27.257812 Z M 55.796875 27.257812 " fill-opacity="1" fill-rule="nonzero"/><path fill="#2941ab" d="M 29.832031 53.828125 L 34.109375 60.308594 " fill-opacity="1" fill-rule="nonzero"/><path fill="#0c008f" d="M 34.109375 60.988281 C 33.886719 60.988281 33.667969 60.878906 33.539062 60.679688 L 29.261719 54.203125 C 29.054688 53.890625 29.144531 53.46875 29.457031 53.261719 C 29.773438 53.054688 30.195312 53.144531 30.402344 53.457031 L 34.679688 59.933594 C 34.886719 60.25 34.796875 60.667969 34.484375 60.875 C 34.367188 60.949219 34.238281 60.988281 34.109375 60.988281 Z M 34.109375 60.988281 " fill-opacity="1" fill-rule="nonzero"/><path fill="#2941ab" d="M 27.34375 49.785156 L 27.878906 50.613281 " fill-opacity="1" fill-rule="nonzero"/><path fill="#0c008f" d="M 27.878906 51.292969 C 27.652344 51.292969 27.433594 51.179688 27.304688 50.980469 L 26.769531 50.152344 C 26.566406 49.835938 26.660156 49.414062 26.976562 49.210938 C 27.292969 49.011719 27.714844 49.101562 27.917969 49.417969 L 28.453125 50.246094 C 28.65625 50.5625 28.5625 50.984375 28.246094 51.183594 C 28.132812 51.257812 28.003906 51.292969 27.878906 51.292969 Z M 27.878906 51.292969 " fill-opacity="1" fill-rule="nonzero"/><g clip-path="url(#id2)"><path fill="#f8f9f0" d="M 38.355469 5.710938 C 26.136719 5.710938 16.230469 15.617188 16.230469 27.835938 C 16.230469 40.054688 26.136719 49.960938 38.355469 49.960938 C 50.574219 49.960938 60.480469 40.054688 60.480469 27.835938 C 60.480469 15.617188 50.574219 5.710938 38.355469 5.710938 " fill-opacity="1" fill-rule="nonzero"/></g><path fill="#1cd760" d="M 46.003906 36 L 42.925781 36 L 42.925781 31.613281 L 46.003906 31.613281 Z M 41.925781 36 L 38.847656 36 L 38.847656 27.996094 L 41.925781 27.996094 Z M 37.847656 36 L 34.769531 36 L 34.769531 23.460938 L 37.847656 23.460938 Z M 33.769531 36 L 30.695312 36 L 30.695312 19.84375 L 33.769531 19.84375 Z M 38.355469 13.015625 C 30.632812 13.015625 24.371094 19.277344 24.371094 27 C 24.371094 34.726562 30.632812 40.984375 38.355469 40.984375 C 46.082031 40.984375 52.34375 34.726562 52.34375 27 C 52.34375 19.277344 46.082031 13.015625 38.355469 13.015625 " fill-opacity="1" fill-rule="nonzero"/></svg>