<svg xmlns="http://www.w3.org/2000/svg" xmlns:xlink="http://www.w3.org/1999/xlink" width="100" zoomAndPan="magnify" viewBox="0 0 75 74.999997" height="100" preserveAspectRatio="xMidYMid meet" version="1.0"><defs><g/><clipPath id="id1"><path d="M 1.125 27 L 16.523438 27 L 16.523438 48 L 1.125 48 Z M 1.125 27 " clip-rule="nonzero"/></clipPath><clipPath id="id2"><path d="M 1.125 27 L 16.523438 27 L 16.523438 48.054688 L 1.125 48.054688 Z M 1.125 27 " clip-rule="nonzero"/></clipPath><clipPath id="id3"><path d="M 2.644531 28.601562 L 15.421875 28.601562 L 15.421875 41.375 L 2.644531 41.375 Z M 2.644531 28.601562 " clip-rule="nonzero"/></clipPath></defs><g fill="#000000" fill-opacity="1"><g transform="translate(19.742878, 40.272837)"><g><path d="M 3.46875 0.09375 C 2.84375 0.09375 2.296875 -0.00390625 1.828125 -0.203125 C 1.367188 -0.410156 1.007812 -0.707031 0.75 -1.09375 C 0.5 -1.476562 0.375 -1.921875 0.375 -2.421875 L 0.375 -2.578125 C 0.375 -2.640625 0.390625 -2.6875 0.421875 -2.71875 C 0.460938 -2.757812 0.515625 -2.78125 0.578125 -2.78125 L 2.046875 -2.78125 C 2.109375 -2.78125 2.160156 -2.765625 2.203125 -2.734375 C 2.242188 -2.710938 2.265625 -2.679688 2.265625 -2.640625 L 2.265625 -2.5 C 2.265625 -2.257812 2.390625 -2.039062 2.640625 -1.84375 C 2.890625 -1.644531 3.210938 -1.546875 3.609375 -1.546875 C 3.941406 -1.546875 4.191406 -1.617188 4.359375 -1.765625 C 4.523438 -1.921875 4.609375 -2.09375 4.609375 -2.28125 C 4.609375 -2.5 4.507812 -2.664062 4.3125 -2.78125 C 4.125 -2.894531 3.785156 -3.03125 3.296875 -3.1875 L 3.046875 -3.265625 C 2.554688 -3.429688 2.125 -3.609375 1.75 -3.796875 C 1.375 -3.984375 1.054688 -4.242188 0.796875 -4.578125 C 0.535156 -4.921875 0.40625 -5.335938 0.40625 -5.828125 C 0.40625 -6.304688 0.53125 -6.722656 0.78125 -7.078125 C 1.03125 -7.441406 1.378906 -7.71875 1.828125 -7.90625 C 2.273438 -8.101562 2.78125 -8.203125 3.34375 -8.203125 C 3.9375 -8.203125 4.46875 -8.09375 4.9375 -7.875 C 5.414062 -7.664062 5.789062 -7.363281 6.0625 -6.96875 C 6.332031 -6.570312 6.46875 -6.117188 6.46875 -5.609375 L 6.46875 -5.515625 C 6.46875 -5.453125 6.445312 -5.398438 6.40625 -5.359375 C 6.375 -5.328125 6.328125 -5.3125 6.265625 -5.3125 L 4.78125 -5.3125 C 4.726562 -5.3125 4.679688 -5.320312 4.640625 -5.34375 C 4.597656 -5.363281 4.578125 -5.390625 4.578125 -5.421875 L 4.578125 -5.53125 C 4.578125 -5.800781 4.457031 -6.039062 4.21875 -6.25 C 3.976562 -6.457031 3.660156 -6.5625 3.265625 -6.5625 C 2.960938 -6.5625 2.722656 -6.5 2.546875 -6.375 C 2.378906 -6.25 2.296875 -6.078125 2.296875 -5.859375 C 2.296875 -5.679688 2.347656 -5.535156 2.453125 -5.421875 C 2.566406 -5.316406 2.734375 -5.210938 2.953125 -5.109375 C 3.179688 -5.015625 3.535156 -4.890625 4.015625 -4.734375 C 4.554688 -4.554688 4.976562 -4.394531 5.28125 -4.25 C 5.582031 -4.113281 5.863281 -3.890625 6.125 -3.578125 C 6.394531 -3.265625 6.53125 -2.851562 6.53125 -2.34375 C 6.53125 -1.851562 6.398438 -1.425781 6.140625 -1.0625 C 5.890625 -0.695312 5.53125 -0.410156 5.0625 -0.203125 C 4.601562 -0.00390625 4.070312 0.09375 3.46875 0.09375 Z M 3.46875 0.09375 "/></g></g></g><g fill="#000000" fill-opacity="1"><g transform="translate(26.638824, 40.272837)"><g><path d="M 6.125 -4.296875 C 6.25 -3.921875 6.3125 -3.476562 6.3125 -2.96875 C 6.3125 -2.414062 6.226562 -1.925781 6.0625 -1.5 C 5.882812 -1.019531 5.597656 -0.628906 5.203125 -0.328125 C 4.804688 -0.0351562 4.359375 0.109375 3.859375 0.109375 C 3.273438 0.109375 2.832031 -0.0664062 2.53125 -0.421875 C 2.507812 -0.453125 2.488281 -0.460938 2.46875 -0.453125 C 2.457031 -0.453125 2.453125 -0.429688 2.453125 -0.390625 L 2.453125 1.90625 C 2.453125 1.96875 2.429688 2.019531 2.390625 2.0625 C 2.347656 2.101562 2.296875 2.125 2.234375 2.125 L 0.734375 2.125 C 0.671875 2.125 0.617188 2.101562 0.578125 2.0625 C 0.535156 2.019531 0.515625 1.96875 0.515625 1.90625 L 0.515625 -5.78125 C 0.515625 -5.84375 0.535156 -5.894531 0.578125 -5.9375 C 0.617188 -5.976562 0.671875 -6 0.734375 -6 L 2.234375 -6 C 2.296875 -6 2.347656 -5.976562 2.390625 -5.9375 C 2.429688 -5.894531 2.453125 -5.84375 2.453125 -5.78125 L 2.453125 -5.5 C 2.453125 -5.46875 2.457031 -5.445312 2.46875 -5.4375 C 2.488281 -5.425781 2.507812 -5.4375 2.53125 -5.46875 C 2.832031 -5.882812 3.273438 -6.09375 3.859375 -6.09375 C 4.359375 -6.09375 4.820312 -5.925781 5.25 -5.59375 C 5.675781 -5.257812 5.96875 -4.828125 6.125 -4.296875 Z M 4.03125 -2 C 4.175781 -2.25 4.25 -2.582031 4.25 -3 C 4.25 -3.394531 4.179688 -3.71875 4.046875 -3.96875 C 3.878906 -4.25 3.644531 -4.390625 3.34375 -4.390625 C 3.050781 -4.390625 2.820312 -4.242188 2.65625 -3.953125 C 2.519531 -3.703125 2.453125 -3.382812 2.453125 -3 C 2.453125 -2.570312 2.523438 -2.234375 2.671875 -1.984375 C 2.828125 -1.722656 3.050781 -1.59375 3.34375 -1.59375 C 3.644531 -1.59375 3.875 -1.726562 4.03125 -2 Z M 4.03125 -2 "/></g></g></g><g fill="#000000" fill-opacity="1"><g transform="translate(33.16389, 40.272837)"><g><path d="M 3.234375 0.09375 C 2.535156 0.09375 1.941406 -0.0859375 1.453125 -0.453125 C 0.972656 -0.828125 0.648438 -1.332031 0.484375 -1.96875 C 0.390625 -2.289062 0.34375 -2.640625 0.34375 -3.015625 C 0.34375 -3.398438 0.394531 -3.773438 0.5 -4.140625 C 0.675781 -4.753906 1.003906 -5.234375 1.484375 -5.578125 C 1.972656 -5.921875 2.5625 -6.09375 3.25 -6.09375 C 3.925781 -6.09375 4.5 -5.921875 4.96875 -5.578125 C 5.445312 -5.234375 5.773438 -4.757812 5.953125 -4.15625 C 6.066406 -3.800781 6.125 -3.425781 6.125 -3.03125 C 6.125 -2.675781 6.082031 -2.335938 6 -2.015625 C 5.832031 -1.367188 5.503906 -0.851562 5.015625 -0.46875 C 4.535156 -0.09375 3.941406 0.09375 3.234375 0.09375 Z M 3.234375 -1.546875 C 3.460938 -1.546875 3.648438 -1.617188 3.796875 -1.765625 C 3.941406 -1.910156 4.046875 -2.109375 4.109375 -2.359375 C 4.160156 -2.554688 4.1875 -2.773438 4.1875 -3.015625 C 4.1875 -3.242188 4.160156 -3.46875 4.109375 -3.6875 C 4.046875 -3.925781 3.941406 -4.109375 3.796875 -4.234375 C 3.648438 -4.367188 3.460938 -4.4375 3.234375 -4.4375 C 3.003906 -4.4375 2.816406 -4.367188 2.671875 -4.234375 C 2.523438 -4.109375 2.421875 -3.925781 2.359375 -3.6875 C 2.304688 -3.519531 2.28125 -3.296875 2.28125 -3.015625 C 2.28125 -2.773438 2.304688 -2.554688 2.359375 -2.359375 C 2.421875 -2.109375 2.523438 -1.910156 2.671875 -1.765625 C 2.828125 -1.617188 3.015625 -1.546875 3.234375 -1.546875 Z M 3.234375 -1.546875 "/></g></g></g><g fill="#000000" fill-opacity="1"><g transform="translate(39.631014, 40.272837)"><g><path d="M 4.1875 -4.65625 C 4.1875 -4.59375 4.164062 -4.539062 4.125 -4.5 C 4.082031 -4.46875 4.035156 -4.453125 3.984375 -4.453125 L 3.015625 -4.453125 C 2.960938 -4.453125 2.9375 -4.425781 2.9375 -4.375 L 2.9375 -2.34375 C 2.9375 -1.90625 3.113281 -1.6875 3.46875 -1.6875 L 3.828125 -1.6875 C 3.890625 -1.6875 3.9375 -1.664062 3.96875 -1.625 C 4.007812 -1.582031 4.03125 -1.53125 4.03125 -1.46875 L 4.03125 -0.25 C 4.03125 -0.125 3.96875 -0.0546875 3.84375 -0.046875 C 3.476562 -0.0234375 3.222656 -0.015625 3.078125 -0.015625 C 2.410156 -0.015625 1.910156 -0.125 1.578125 -0.34375 C 1.253906 -0.5625 1.09375 -0.960938 1.09375 -1.546875 L 1.09375 -4.375 C 1.09375 -4.425781 1.066406 -4.453125 1.015625 -4.453125 L 0.4375 -4.453125 C 0.375 -4.453125 0.320312 -4.46875 0.28125 -4.5 C 0.25 -4.539062 0.234375 -4.59375 0.234375 -4.65625 L 0.234375 -5.78125 C 0.234375 -5.84375 0.25 -5.894531 0.28125 -5.9375 C 0.320312 -5.976562 0.375 -6 0.4375 -6 L 1.015625 -6 C 1.066406 -6 1.09375 -6.023438 1.09375 -6.078125 L 1.09375 -7.390625 C 1.09375 -7.453125 1.109375 -7.5 1.140625 -7.53125 C 1.179688 -7.570312 1.234375 -7.59375 1.296875 -7.59375 L 2.71875 -7.59375 C 2.78125 -7.59375 2.832031 -7.570312 2.875 -7.53125 C 2.914062 -7.5 2.9375 -7.453125 2.9375 -7.390625 L 2.9375 -6.078125 C 2.9375 -6.023438 2.960938 -6 3.015625 -6 L 3.984375 -6 C 4.035156 -6 4.082031 -5.976562 4.125 -5.9375 C 4.164062 -5.894531 4.1875 -5.84375 4.1875 -5.78125 Z M 4.1875 -4.65625 "/></g></g></g><g fill="#000000" fill-opacity="1"><g transform="translate(44.104681, 40.272837)"><g><path d="M 1.546875 -6.390625 C 1.203125 -6.390625 0.925781 -6.488281 0.71875 -6.6875 C 0.507812 -6.894531 0.40625 -7.164062 0.40625 -7.5 C 0.40625 -7.820312 0.507812 -8.082031 0.71875 -8.28125 C 0.925781 -8.488281 1.203125 -8.59375 1.546875 -8.59375 C 1.878906 -8.59375 2.148438 -8.488281 2.359375 -8.28125 C 2.566406 -8.082031 2.671875 -7.820312 2.671875 -7.5 C 2.671875 -7.164062 2.566406 -6.894531 2.359375 -6.6875 C 2.148438 -6.488281 1.878906 -6.390625 1.546875 -6.390625 Z M 0.78125 0 C 0.726562 0 0.679688 -0.015625 0.640625 -0.046875 C 0.597656 -0.0859375 0.578125 -0.140625 0.578125 -0.203125 L 0.578125 -5.78125 C 0.578125 -5.84375 0.597656 -5.894531 0.640625 -5.9375 C 0.679688 -5.976562 0.726562 -6 0.78125 -6 L 2.296875 -6 C 2.359375 -6 2.40625 -5.976562 2.4375 -5.9375 C 2.476562 -5.894531 2.5 -5.84375 2.5 -5.78125 L 2.5 -0.203125 C 2.5 -0.140625 2.476562 -0.0859375 2.4375 -0.046875 C 2.40625 -0.015625 2.359375 0 2.296875 0 Z M 0.78125 0 "/></g></g></g><g fill="#000000" fill-opacity="1"><g transform="translate(47.175989, 40.272837)"><g><path d="M 7.375 -6.09375 C 7.976562 -6.09375 8.445312 -5.90625 8.78125 -5.53125 C 9.125 -5.15625 9.296875 -4.632812 9.296875 -3.96875 L 9.296875 -0.203125 C 9.296875 -0.140625 9.273438 -0.0859375 9.234375 -0.046875 C 9.203125 -0.015625 9.15625 0 9.09375 0 L 7.59375 0 C 7.53125 0 7.476562 -0.015625 7.4375 -0.046875 C 7.40625 -0.0859375 7.390625 -0.140625 7.390625 -0.203125 L 7.390625 -3.546875 C 7.390625 -3.804688 7.320312 -4.019531 7.1875 -4.1875 C 7.050781 -4.351562 6.867188 -4.4375 6.640625 -4.4375 C 6.421875 -4.4375 6.238281 -4.351562 6.09375 -4.1875 C 5.945312 -4.03125 5.875 -3.816406 5.875 -3.546875 L 5.875 -0.203125 C 5.875 -0.140625 5.851562 -0.0859375 5.8125 -0.046875 C 5.78125 -0.015625 5.734375 0 5.671875 0 L 4.15625 0 C 4.09375 0 4.039062 -0.015625 4 -0.046875 C 3.96875 -0.0859375 3.953125 -0.140625 3.953125 -0.203125 L 3.953125 -3.546875 C 3.953125 -3.804688 3.878906 -4.019531 3.734375 -4.1875 C 3.597656 -4.351562 3.414062 -4.4375 3.1875 -4.4375 C 2.976562 -4.4375 2.800781 -4.367188 2.65625 -4.234375 C 2.519531 -4.109375 2.4375 -3.9375 2.40625 -3.71875 L 2.40625 -0.203125 C 2.40625 -0.140625 2.382812 -0.0859375 2.34375 -0.046875 C 2.3125 -0.015625 2.265625 0 2.203125 0 L 0.703125 0 C 0.640625 0 0.585938 -0.015625 0.546875 -0.046875 C 0.503906 -0.0859375 0.484375 -0.140625 0.484375 -0.203125 L 0.484375 -5.78125 C 0.484375 -5.84375 0.503906 -5.894531 0.546875 -5.9375 C 0.585938 -5.976562 0.640625 -6 0.703125 -6 L 2.203125 -6 C 2.265625 -6 2.3125 -5.976562 2.34375 -5.9375 C 2.382812 -5.894531 2.40625 -5.84375 2.40625 -5.78125 L 2.40625 -5.375 C 2.40625 -5.34375 2.414062 -5.320312 2.4375 -5.3125 C 2.457031 -5.3125 2.476562 -5.328125 2.5 -5.359375 C 2.8125 -5.847656 3.300781 -6.09375 3.96875 -6.09375 C 4.34375 -6.09375 4.675781 -6.007812 4.96875 -5.84375 C 5.257812 -5.675781 5.484375 -5.429688 5.640625 -5.109375 C 5.660156 -5.078125 5.679688 -5.0625 5.703125 -5.0625 C 5.722656 -5.070312 5.738281 -5.09375 5.75 -5.125 C 6.070312 -5.769531 6.613281 -6.09375 7.375 -6.09375 Z M 7.375 -6.09375 "/></g></g></g><g fill="#000000" fill-opacity="1"><g transform="translate(56.911443, 40.272837)"><g><path d="M 3 -6.09375 C 3.507812 -6.09375 3.972656 -6.003906 4.390625 -5.828125 C 4.804688 -5.648438 5.132812 -5.410156 5.375 -5.109375 C 5.613281 -4.804688 5.734375 -4.46875 5.734375 -4.09375 L 5.734375 -0.203125 C 5.734375 -0.140625 5.710938 -0.0859375 5.671875 -0.046875 C 5.640625 -0.015625 5.59375 0 5.53125 0 L 4.015625 0 C 3.960938 0 3.914062 -0.015625 3.875 -0.046875 C 3.832031 -0.0859375 3.8125 -0.140625 3.8125 -0.203125 L 3.8125 -0.4375 C 3.8125 -0.476562 3.800781 -0.5 3.78125 -0.5 C 3.757812 -0.507812 3.738281 -0.5 3.71875 -0.46875 C 3.414062 -0.09375 2.914062 0.09375 2.21875 0.09375 C 1.613281 0.09375 1.128906 -0.0507812 0.765625 -0.34375 C 0.398438 -0.632812 0.21875 -1.0625 0.21875 -1.625 C 0.21875 -2.21875 0.421875 -2.675781 0.828125 -3 C 1.242188 -3.320312 1.84375 -3.484375 2.625 -3.484375 L 3.734375 -3.484375 C 3.785156 -3.484375 3.8125 -3.515625 3.8125 -3.578125 L 3.8125 -3.765625 C 3.8125 -3.972656 3.742188 -4.132812 3.609375 -4.25 C 3.472656 -4.375 3.28125 -4.4375 3.03125 -4.4375 C 2.851562 -4.4375 2.703125 -4.40625 2.578125 -4.34375 C 2.453125 -4.289062 2.363281 -4.210938 2.3125 -4.109375 C 2.269531 -4.054688 2.226562 -4.015625 2.1875 -3.984375 C 2.15625 -3.960938 2.113281 -3.957031 2.0625 -3.96875 L 0.515625 -4.15625 C 0.367188 -4.175781 0.304688 -4.234375 0.328125 -4.328125 C 0.359375 -4.660156 0.492188 -4.957031 0.734375 -5.21875 C 0.972656 -5.488281 1.285156 -5.703125 1.671875 -5.859375 C 2.066406 -6.015625 2.507812 -6.09375 3 -6.09375 Z M 2.8125 -1.28125 C 3.101562 -1.28125 3.34375 -1.351562 3.53125 -1.5 C 3.71875 -1.65625 3.8125 -1.859375 3.8125 -2.109375 L 3.8125 -2.359375 C 3.8125 -2.421875 3.785156 -2.453125 3.734375 -2.453125 L 3.0625 -2.453125 C 2.769531 -2.453125 2.539062 -2.398438 2.375 -2.296875 C 2.21875 -2.191406 2.140625 -2.039062 2.140625 -1.84375 C 2.140625 -1.675781 2.195312 -1.539062 2.3125 -1.4375 C 2.4375 -1.332031 2.601562 -1.28125 2.8125 -1.28125 Z M 2.8125 -1.28125 "/></g></g></g><g fill="#000000" fill-opacity="1"><g transform="translate(63.112, 40.272837)"><g><path d="M 6.125 -4.296875 C 6.25 -3.921875 6.3125 -3.476562 6.3125 -2.96875 C 6.3125 -2.414062 6.226562 -1.925781 6.0625 -1.5 C 5.882812 -1.019531 5.597656 -0.628906 5.203125 -0.328125 C 4.804688 -0.0351562 4.359375 0.109375 3.859375 0.109375 C 3.273438 0.109375 2.832031 -0.0664062 2.53125 -0.421875 C 2.507812 -0.453125 2.488281 -0.460938 2.46875 -0.453125 C 2.457031 -0.453125 2.453125 -0.429688 2.453125 -0.390625 L 2.453125 1.90625 C 2.453125 1.96875 2.429688 2.019531 2.390625 2.0625 C 2.347656 2.101562 2.296875 2.125 2.234375 2.125 L 0.734375 2.125 C 0.671875 2.125 0.617188 2.101562 0.578125 2.0625 C 0.535156 2.019531 0.515625 1.96875 0.515625 1.90625 L 0.515625 -5.78125 C 0.515625 -5.84375 0.535156 -5.894531 0.578125 -5.9375 C 0.617188 -5.976562 0.671875 -6 0.734375 -6 L 2.234375 -6 C 2.296875 -6 2.347656 -5.976562 2.390625 -5.9375 C 2.429688 -5.894531 2.453125 -5.84375 2.453125 -5.78125 L 2.453125 -5.5 C 2.453125 -5.46875 2.457031 -5.445312 2.46875 -5.4375 C 2.488281 -5.425781 2.507812 -5.4375 2.53125 -5.46875 C 2.832031 -5.882812 3.273438 -6.09375 3.859375 -6.09375 C 4.359375 -6.09375 4.820312 -5.925781 5.25 -5.59375 C 5.675781 -5.257812 5.96875 -4.828125 6.125 -4.296875 Z M 4.03125 -2 C 4.175781 -2.25 4.25 -2.582031 4.25 -3 C 4.25 -3.394531 4.179688 -3.71875 4.046875 -3.96875 C 3.878906 -4.25 3.644531 -4.390625 3.34375 -4.390625 C 3.050781 -4.390625 2.820312 -4.242188 2.65625 -3.953125 C 2.519531 -3.703125 2.453125 -3.382812 2.453125 -3 C 2.453125 -2.570312 2.523438 -2.234375 2.671875 -1.984375 C 2.828125 -1.722656 3.050781 -1.59375 3.34375 -1.59375 C 3.644531 -1.59375 3.875 -1.726562 4.03125 -2 Z M 4.03125 -2 "/></g></g></g><g fill="#ffffff" fill-opacity="1"><g transform="translate(19.742878, 43.211029)"><g><path d="M 0.0625 0 C 0.0507812 0 0.0390625 0 0.03125 0 C 0.0195312 -0.0078125 0.015625 -0.015625 0.015625 -0.015625 C 0.015625 -0.0234375 0.015625 -0.03125 0.015625 -0.03125 L 0.015625 -0.046875 L 0.03125 -0.046875 L 0.03125 -0.03125 C 0.03125 -0.03125 0.03125 -0.0234375 0.03125 -0.015625 C 0.0390625 -0.015625 0.0507812 -0.015625 0.0625 -0.015625 C 0.0703125 -0.015625 0.078125 -0.015625 0.078125 -0.015625 C 0.0859375 -0.0234375 0.09375 -0.03125 0.09375 -0.03125 C 0.09375 -0.0390625 0.0859375 -0.046875 0.078125 -0.046875 C 0.078125 -0.046875 0.0703125 -0.046875 0.0625 -0.046875 C 0.0625 -0.0546875 0.0546875 -0.0625 0.046875 -0.0625 C 0.046875 -0.0625 0.0390625 -0.0625 0.03125 -0.0625 C 0.0195312 -0.0703125 0.015625 -0.078125 0.015625 -0.078125 C 0.015625 -0.0859375 0.015625 -0.0976562 0.015625 -0.109375 C 0.015625 -0.117188 0.015625 -0.125 0.015625 -0.125 C 0.0234375 -0.132812 0.0390625 -0.140625 0.0625 -0.140625 C 0.0703125 -0.140625 0.078125 -0.132812 0.078125 -0.125 C 0.0859375 -0.125 0.09375 -0.117188 0.09375 -0.109375 C 0.101562 -0.109375 0.109375 -0.109375 0.109375 -0.109375 L 0.109375 -0.09375 L 0.09375 -0.09375 C 0.09375 -0.101562 0.0859375 -0.109375 0.078125 -0.109375 C 0.078125 -0.117188 0.0703125 -0.125 0.0625 -0.125 C 0.0507812 -0.125 0.0390625 -0.117188 0.03125 -0.109375 C 0.03125 -0.0976562 0.03125 -0.09375 0.03125 -0.09375 C 0.03125 -0.09375 0.03125 -0.0859375 0.03125 -0.078125 C 0.0390625 -0.078125 0.0507812 -0.078125 0.0625 -0.078125 C 0.0703125 -0.078125 0.078125 -0.0703125 0.078125 -0.0625 C 0.0859375 -0.0625 0.09375 -0.0546875 0.09375 -0.046875 C 0.101562 -0.046875 0.109375 -0.0390625 0.109375 -0.03125 C 0.109375 -0.03125 0.101562 -0.0234375 0.09375 -0.015625 C 0.09375 -0.015625 0.0859375 -0.0078125 0.078125 0 C 0.078125 0 0.0703125 0 0.0625 0 Z M 0.0625 0 "/></g></g></g><g fill="#ffffff" fill-opacity="1"><g transform="translate(19.859078, 43.211029)"><g><path d="M 0.0625 -0.09375 L 0.046875 -0.09375 C 0.046875 -0.09375 0.046875 -0.0859375 0.046875 -0.078125 L 0.046875 -0.03125 C 0.046875 -0.03125 0.046875 -0.0234375 0.046875 -0.015625 C 0.046875 -0.015625 0.0507812 -0.015625 0.0625 -0.015625 L 0.0625 0 L 0.046875 0 C 0.0351562 0 0.0234375 0 0.015625 0 C 0.015625 -0.0078125 0.015625 -0.0195312 0.015625 -0.03125 L 0.015625 -0.078125 C 0.015625 -0.0859375 0.015625 -0.09375 0.015625 -0.09375 C 0.015625 -0.09375 0.0078125 -0.09375 0 -0.09375 C 0.0078125 -0.101562 0.015625 -0.109375 0.015625 -0.109375 L 0.015625 -0.125 C 0.015625 -0.125 0.0195312 -0.125 0.03125 -0.125 C 0.0390625 -0.125 0.046875 -0.125 0.046875 -0.125 L 0.046875 -0.109375 L 0.0625 -0.109375 C 0.0625 -0.109375 0.0625 -0.101562 0.0625 -0.09375 Z M 0.0625 -0.09375 "/></g></g></g><g fill="#ffffff" fill-opacity="1"><g transform="translate(19.931999, 43.211029)"><g><path d="M 0.0625 -0.109375 C 0.0625 -0.109375 0.0625 -0.101562 0.0625 -0.09375 C 0.0703125 -0.09375 0.078125 -0.09375 0.078125 -0.09375 L 0.0625 -0.078125 C 0.0507812 -0.078125 0.0390625 -0.0703125 0.03125 -0.0625 L 0.03125 0 L 0.015625 0 L 0.015625 -0.09375 C 0.015625 -0.101562 0.015625 -0.109375 0.015625 -0.109375 L 0.03125 -0.109375 C 0.03125 -0.109375 0.03125 -0.101562 0.03125 -0.09375 C 0.0390625 -0.101562 0.0507812 -0.109375 0.0625 -0.109375 Z M 0.0625 -0.109375 "/></g></g></g><g fill="#ffffff" fill-opacity="1"><g transform="translate(20.005316, 43.211029)"><g><path d="M 0.0625 -0.015625 C 0.0703125 -0.015625 0.078125 -0.0195312 0.078125 -0.03125 L 0.09375 -0.03125 C 0.09375 -0.0195312 0.09375 -0.015625 0.09375 -0.015625 C 0.09375 -0.015625 0.0859375 -0.0078125 0.078125 0 C 0.0664062 0 0.0625 0 0.0625 0 C 0.0507812 0 0.0390625 0 0.03125 0 C 0.0195312 -0.0078125 0.015625 -0.015625 0.015625 -0.015625 C 0.015625 -0.0234375 0.015625 -0.0351562 0.015625 -0.046875 C 0.015625 -0.0546875 0.015625 -0.0664062 0.015625 -0.078125 C 0.015625 -0.0859375 0.015625 -0.09375 0.015625 -0.09375 C 0.0234375 -0.101562 0.0351562 -0.109375 0.046875 -0.109375 C 0.0664062 -0.109375 0.078125 -0.101562 0.078125 -0.09375 C 0.0859375 -0.0820312 0.09375 -0.0703125 0.09375 -0.0625 C 0.09375 -0.0625 0.09375 -0.0546875 0.09375 -0.046875 L 0.03125 -0.046875 C 0.03125 -0.0351562 0.03125 -0.03125 0.03125 -0.03125 C 0.03125 -0.03125 0.03125 -0.0234375 0.03125 -0.015625 C 0.0390625 -0.015625 0.0507812 -0.015625 0.0625 -0.015625 Z M 0.046875 -0.09375 C 0.046875 -0.09375 0.0390625 -0.0859375 0.03125 -0.078125 C 0.03125 -0.0664062 0.03125 -0.0625 0.03125 -0.0625 L 0.078125 -0.0625 C 0.078125 -0.0703125 0.0703125 -0.078125 0.0625 -0.078125 C 0.0625 -0.0859375 0.0546875 -0.09375 0.046875 -0.09375 Z M 0.046875 -0.09375 "/></g></g></g><g fill="#ffffff" fill-opacity="1"><g transform="translate(20.111634, 43.211029)"><g><path d="M 0.046875 -0.109375 C 0.0546875 -0.109375 0.0625 -0.101562 0.0625 -0.09375 C 0.0703125 -0.09375 0.078125 -0.0859375 0.078125 -0.078125 C 0.0859375 -0.078125 0.09375 -0.0703125 0.09375 -0.0625 L 0.09375 0 L 0.078125 0 L 0.078125 -0.015625 C 0.0664062 -0.00390625 0.0546875 0 0.046875 0 C 0.0351562 0 0.0234375 0 0.015625 0 C 0.00390625 -0.0078125 0 -0.0195312 0 -0.03125 C 0 -0.0390625 0.00390625 -0.046875 0.015625 -0.046875 C 0.0234375 -0.0546875 0.0351562 -0.0625 0.046875 -0.0625 L 0.078125 -0.0625 C 0.078125 -0.0703125 0.0703125 -0.078125 0.0625 -0.078125 C 0.0625 -0.0859375 0.0546875 -0.09375 0.046875 -0.09375 C 0.046875 -0.09375 0.0390625 -0.0859375 0.03125 -0.078125 L 0.015625 -0.078125 C 0.015625 -0.0859375 0.015625 -0.09375 0.015625 -0.09375 C 0.0234375 -0.101562 0.0351562 -0.109375 0.046875 -0.109375 Z M 0.046875 -0.015625 C 0.0546875 -0.015625 0.0625 -0.015625 0.0625 -0.015625 C 0.0703125 -0.0234375 0.078125 -0.03125 0.078125 -0.03125 L 0.078125 -0.046875 L 0.046875 -0.046875 C 0.046875 -0.046875 0.0390625 -0.0390625 0.03125 -0.03125 C 0.03125 -0.0195312 0.03125 -0.015625 0.03125 -0.015625 C 0.03125 -0.015625 0.0351562 -0.015625 0.046875 -0.015625 Z M 0.046875 -0.015625 "/></g></g></g><g fill="#ffffff" fill-opacity="1"><g transform="translate(20.213803, 43.211029)"><g><path d="M 0.125 -0.109375 C 0.125 -0.109375 0.128906 -0.101562 0.140625 -0.09375 C 0.148438 -0.0820312 0.15625 -0.0703125 0.15625 -0.0625 L 0.15625 0 C 0.15625 0 0.148438 0 0.140625 0 C 0.128906 0 0.125 0 0.125 0 L 0.125 -0.0625 C 0.125 -0.0703125 0.125 -0.078125 0.125 -0.078125 C 0.125 -0.0859375 0.117188 -0.09375 0.109375 -0.09375 C 0.109375 -0.09375 0.101562 -0.0859375 0.09375 -0.078125 C 0.09375 -0.078125 0.09375 -0.0703125 0.09375 -0.0625 L 0.09375 0 L 0.078125 0 L 0.078125 -0.0625 C 0.078125 -0.0703125 0.0703125 -0.078125 0.0625 -0.078125 C 0.0625 -0.0859375 0.0546875 -0.09375 0.046875 -0.09375 C 0.046875 -0.09375 0.0390625 -0.0859375 0.03125 -0.078125 C 0.03125 -0.078125 0.03125 -0.0703125 0.03125 -0.0625 L 0.03125 0 L 0.015625 0 L 0.015625 -0.09375 C 0.015625 -0.101562 0.015625 -0.109375 0.015625 -0.109375 L 0.03125 -0.109375 C 0.03125 -0.109375 0.03125 -0.101562 0.03125 -0.09375 C 0.0390625 -0.101562 0.0507812 -0.109375 0.0625 -0.109375 C 0.0625 -0.109375 0.0625 -0.101562 0.0625 -0.09375 C 0.0703125 -0.09375 0.0820312 -0.09375 0.09375 -0.09375 C 0.101562 -0.101562 0.113281 -0.109375 0.125 -0.109375 Z M 0.125 -0.109375 "/></g></g></g><g fill="#ffffff" fill-opacity="1"><g transform="translate(20.377036, 43.211029)"><g/></g></g><g fill="#ffffff" fill-opacity="1"><g transform="translate(20.41656, 43.211029)"><g><path d="M 0.125 -0.109375 C 0.125 -0.109375 0.128906 -0.101562 0.140625 -0.09375 C 0.148438 -0.0820312 0.15625 -0.0703125 0.15625 -0.0625 L 0.15625 0 C 0.15625 0 0.148438 0 0.140625 0 C 0.128906 0 0.125 0 0.125 0 L 0.125 -0.0625 C 0.125 -0.0703125 0.125 -0.078125 0.125 -0.078125 C 0.125 -0.0859375 0.117188 -0.09375 0.109375 -0.09375 C 0.109375 -0.09375 0.101562 -0.0859375 0.09375 -0.078125 C 0.09375 -0.078125 0.09375 -0.0703125 0.09375 -0.0625 L 0.09375 0 L 0.078125 0 L 0.078125 -0.0625 C 0.078125 -0.0703125 0.0703125 -0.078125 0.0625 -0.078125 C 0.0625 -0.0859375 0.0546875 -0.09375 0.046875 -0.09375 C 0.046875 -0.09375 0.0390625 -0.0859375 0.03125 -0.078125 C 0.03125 -0.078125 0.03125 -0.0703125 0.03125 -0.0625 L 0.03125 0 L 0.015625 0 L 0.015625 -0.09375 C 0.015625 -0.101562 0.015625 -0.109375 0.015625 -0.109375 L 0.03125 -0.109375 C 0.03125 -0.109375 0.03125 -0.101562 0.03125 -0.09375 C 0.0390625 -0.101562 0.0507812 -0.109375 0.0625 -0.109375 C 0.0625 -0.109375 0.0625 -0.101562 0.0625 -0.09375 C 0.0703125 -0.09375 0.0820312 -0.09375 0.09375 -0.09375 C 0.101562 -0.101562 0.113281 -0.109375 0.125 -0.109375 Z M 0.125 -0.109375 "/></g></g></g><g fill="#ffffff" fill-opacity="1"><g transform="translate(20.579793, 43.211029)"><g><path d="M 0.078125 -0.09375 C 0.078125 -0.101562 0.078125 -0.109375 0.078125 -0.109375 L 0.09375 -0.109375 C 0.09375 -0.109375 0.09375 -0.101562 0.09375 -0.09375 L 0.09375 0 L 0.078125 0 L 0.078125 -0.015625 C 0.0664062 -0.00390625 0.0546875 0 0.046875 0 C 0.046875 0 0.0390625 0 0.03125 0 C 0.0195312 0 0.015625 0 0.015625 0 C 0.015625 -0.0078125 0.015625 -0.0195312 0.015625 -0.03125 L 0.015625 -0.09375 C 0.015625 -0.101562 0.015625 -0.109375 0.015625 -0.109375 L 0.03125 -0.109375 C 0.03125 -0.109375 0.03125 -0.101562 0.03125 -0.09375 L 0.03125 -0.03125 C 0.03125 -0.03125 0.03125 -0.0234375 0.03125 -0.015625 C 0.0390625 -0.015625 0.046875 -0.015625 0.046875 -0.015625 C 0.0546875 -0.015625 0.0625 -0.015625 0.0625 -0.015625 C 0.0703125 -0.0234375 0.078125 -0.03125 0.078125 -0.03125 Z M 0.078125 -0.09375 "/></g></g></g><g fill="#ffffff" fill-opacity="1"><g transform="translate(20.686112, 43.211029)"><g><path d="M 0.046875 0 C 0.0351562 0 0.0234375 0 0.015625 0 C 0.015625 -0.0078125 0.015625 -0.0195312 0.015625 -0.03125 L 0.03125 -0.03125 C 0.03125 -0.0195312 0.03125 -0.015625 0.03125 -0.015625 C 0.0390625 -0.015625 0.046875 -0.015625 0.046875 -0.015625 C 0.0546875 -0.015625 0.0625 -0.015625 0.0625 -0.015625 C 0.0625 -0.015625 0.0625 -0.0195312 0.0625 -0.03125 C 0.0625 -0.03125 0.0546875 -0.0351562 0.046875 -0.046875 C 0.0351562 -0.046875 0.0234375 -0.046875 0.015625 -0.046875 C 0.015625 -0.0546875 0.015625 -0.0664062 0.015625 -0.078125 C 0.015625 -0.0859375 0.015625 -0.09375 0.015625 -0.09375 C 0.0234375 -0.101562 0.0351562 -0.109375 0.046875 -0.109375 C 0.0546875 -0.109375 0.0625 -0.101562 0.0625 -0.09375 C 0.0703125 -0.09375 0.078125 -0.0859375 0.078125 -0.078125 C 0.0859375 -0.078125 0.09375 -0.078125 0.09375 -0.078125 C 0.09375 -0.078125 0.0859375 -0.078125 0.078125 -0.078125 C 0.078125 -0.078125 0.0703125 -0.078125 0.0625 -0.078125 C 0.0625 -0.0859375 0.0546875 -0.09375 0.046875 -0.09375 C 0.046875 -0.09375 0.0390625 -0.0859375 0.03125 -0.078125 C 0.03125 -0.0664062 0.03125 -0.0625 0.03125 -0.0625 C 0.0390625 -0.0625 0.046875 -0.0625 0.046875 -0.0625 C 0.0546875 -0.0625 0.0625 -0.0546875 0.0625 -0.046875 C 0.0703125 -0.046875 0.078125 -0.0390625 0.078125 -0.03125 C 0.0859375 -0.03125 0.09375 -0.03125 0.09375 -0.03125 C 0.09375 -0.0195312 0.0859375 -0.0078125 0.078125 0 C 0.0664062 0 0.0546875 0 0.046875 0 Z M 0.046875 0 "/></g></g></g><g fill="#ffffff" fill-opacity="1"><g transform="translate(20.78255, 43.211029)"><g><path d="M 0.03125 -0.109375 C 0.0195312 -0.109375 0.015625 -0.109375 0.015625 -0.109375 C 0.015625 -0.117188 0.015625 -0.125 0.015625 -0.125 C 0.015625 -0.132812 0.0195312 -0.140625 0.03125 -0.140625 C 0.03125 -0.140625 0.03125 -0.132812 0.03125 -0.125 C 0.03125 -0.125 0.03125 -0.117188 0.03125 -0.109375 Z M 0.015625 0 L 0.015625 -0.09375 C 0.015625 -0.101562 0.015625 -0.109375 0.015625 -0.109375 L 0.03125 -0.109375 C 0.03125 -0.109375 0.03125 -0.101562 0.03125 -0.09375 L 0.03125 0 Z M 0.015625 0 "/></g></g></g><g fill="#ffffff" fill-opacity="1"><g transform="translate(20.832152, 43.211029)"><g><path d="M 0.0625 0 C 0.0507812 0 0.0390625 0 0.03125 0 C 0.0195312 -0.0078125 0.015625 -0.0195312 0.015625 -0.03125 C 0.015625 -0.03125 0.015625 -0.0351562 0.015625 -0.046875 C 0.015625 -0.0546875 0.015625 -0.0664062 0.015625 -0.078125 C 0.015625 -0.0859375 0.0195312 -0.09375 0.03125 -0.09375 C 0.0390625 -0.101562 0.0507812 -0.109375 0.0625 -0.109375 C 0.0625 -0.109375 0.0664062 -0.101562 0.078125 -0.09375 C 0.0859375 -0.09375 0.09375 -0.0859375 0.09375 -0.078125 C 0.09375 -0.0664062 0.09375 -0.0625 0.09375 -0.0625 L 0.078125 -0.0625 L 0.078125 -0.078125 C 0.078125 -0.078125 0.0703125 -0.078125 0.0625 -0.078125 C 0.0625 -0.0859375 0.0546875 -0.09375 0.046875 -0.09375 C 0.046875 -0.09375 0.0390625 -0.0859375 0.03125 -0.078125 C 0.03125 -0.078125 0.03125 -0.0703125 0.03125 -0.0625 C 0.03125 -0.0625 0.03125 -0.0546875 0.03125 -0.046875 C 0.03125 -0.046875 0.03125 -0.0390625 0.03125 -0.03125 C 0.03125 -0.03125 0.03125 -0.0234375 0.03125 -0.015625 C 0.0390625 -0.015625 0.046875 -0.015625 0.046875 -0.015625 C 0.0546875 -0.015625 0.0625 -0.015625 0.0625 -0.015625 C 0.0703125 -0.0234375 0.078125 -0.03125 0.078125 -0.03125 L 0.09375 -0.03125 C 0.09375 -0.0195312 0.0859375 -0.0078125 0.078125 0 C 0.0664062 0 0.0625 0 0.0625 0 Z M 0.0625 0 "/></g></g></g><g fill="#ffffff" fill-opacity="1"><g transform="translate(20.936099, 43.211029)"><g/></g></g><g fill="#ffffff" fill-opacity="1"><g transform="translate(20.975623, 43.211029)"><g><path d="M 0.046875 -0.109375 C 0.0546875 -0.109375 0.0625 -0.101562 0.0625 -0.09375 C 0.0703125 -0.09375 0.078125 -0.0859375 0.078125 -0.078125 C 0.0859375 -0.078125 0.09375 -0.0703125 0.09375 -0.0625 L 0.09375 0 L 0.078125 0 L 0.078125 -0.015625 C 0.0664062 -0.00390625 0.0546875 0 0.046875 0 C 0.0351562 0 0.0234375 0 0.015625 0 C 0.00390625 -0.0078125 0 -0.0195312 0 -0.03125 C 0 -0.0390625 0.00390625 -0.046875 0.015625 -0.046875 C 0.0234375 -0.0546875 0.0351562 -0.0625 0.046875 -0.0625 L 0.078125 -0.0625 C 0.078125 -0.0703125 0.0703125 -0.078125 0.0625 -0.078125 C 0.0625 -0.0859375 0.0546875 -0.09375 0.046875 -0.09375 C 0.046875 -0.09375 0.0390625 -0.0859375 0.03125 -0.078125 L 0.015625 -0.078125 C 0.015625 -0.0859375 0.015625 -0.09375 0.015625 -0.09375 C 0.0234375 -0.101562 0.0351562 -0.109375 0.046875 -0.109375 Z M 0.046875 -0.015625 C 0.0546875 -0.015625 0.0625 -0.015625 0.0625 -0.015625 C 0.0703125 -0.0234375 0.078125 -0.03125 0.078125 -0.03125 L 0.078125 -0.046875 L 0.046875 -0.046875 C 0.046875 -0.046875 0.0390625 -0.0390625 0.03125 -0.03125 C 0.03125 -0.0195312 0.03125 -0.015625 0.03125 -0.015625 C 0.03125 -0.015625 0.0351562 -0.015625 0.046875 -0.015625 Z M 0.046875 -0.015625 "/></g></g></g><g fill="#ffffff" fill-opacity="1"><g transform="translate(21.077792, 43.211029)"><g><path d="M 0.0625 -0.109375 C 0.0703125 -0.109375 0.078125 -0.101562 0.078125 -0.09375 C 0.0859375 -0.0820312 0.09375 -0.0703125 0.09375 -0.0625 L 0.09375 0 L 0.078125 0 L 0.078125 -0.0625 C 0.078125 -0.0703125 0.0703125 -0.078125 0.0625 -0.078125 C 0.0625 -0.0859375 0.0546875 -0.09375 0.046875 -0.09375 C 0.046875 -0.09375 0.0390625 -0.0859375 0.03125 -0.078125 C 0.03125 -0.078125 0.03125 -0.0703125 0.03125 -0.0625 L 0.03125 0 L 0.015625 0 L 0.015625 -0.09375 C 0.015625 -0.101562 0.015625 -0.109375 0.015625 -0.109375 L 0.03125 -0.109375 C 0.03125 -0.109375 0.03125 -0.101562 0.03125 -0.09375 C 0.0390625 -0.101562 0.0507812 -0.109375 0.0625 -0.109375 Z M 0.0625 -0.109375 "/></g></g></g><g fill="#ffffff" fill-opacity="1"><g transform="translate(21.184901, 43.211029)"><g><path d="M 0.015625 0.046875 C 0.015625 0.046875 0.015625 0.0390625 0.015625 0.03125 C 0.015625 0.03125 0.015625 0.0234375 0.015625 0.015625 C 0.0234375 0.015625 0.03125 0.015625 0.03125 0.015625 C 0.03125 0.015625 0.03125 0.0078125 0.03125 0 L 0 -0.09375 C 0 -0.101562 0 -0.109375 0 -0.109375 L 0.015625 -0.109375 C 0.0234375 -0.109375 0.03125 -0.101562 0.03125 -0.09375 L 0.046875 -0.03125 L 0.078125 -0.09375 C 0.078125 -0.101562 0.078125 -0.109375 0.078125 -0.109375 L 0.09375 -0.109375 C 0.09375 -0.109375 0.09375 -0.101562 0.09375 -0.09375 L 0.046875 0 C 0.046875 0.0078125 0.046875 0.015625 0.046875 0.015625 C 0.046875 0.0234375 0.0390625 0.03125 0.03125 0.03125 C 0.03125 0.0390625 0.0234375 0.046875 0.015625 0.046875 Z M 0.015625 0.046875 "/></g></g></g><g fill="#ffffff" fill-opacity="1"><g transform="translate(21.278967, 43.211029)"><g><path d="M 0.03125 0 L 0 -0.09375 C 0 -0.101562 0.00390625 -0.109375 0.015625 -0.109375 C 0.0234375 -0.109375 0.03125 -0.101562 0.03125 -0.09375 L 0.046875 -0.03125 L 0.0625 -0.09375 C 0.0625 -0.101562 0.0625 -0.109375 0.0625 -0.109375 L 0.078125 -0.109375 C 0.078125 -0.109375 0.078125 -0.101562 0.078125 -0.09375 L 0.109375 -0.03125 L 0.125 -0.09375 C 0.125 -0.101562 0.125 -0.109375 0.125 -0.109375 L 0.140625 -0.109375 C 0.140625 -0.109375 0.140625 -0.101562 0.140625 -0.09375 L 0.109375 0 L 0.09375 0 L 0.078125 -0.0625 L 0.0625 0 C 0.0507812 0 0.046875 0 0.046875 0 Z M 0.03125 0 "/></g></g></g><g fill="#ffffff" fill-opacity="1"><g transform="translate(21.425798, 43.211029)"><g><path d="M 0.0625 -0.109375 C 0.0703125 -0.109375 0.078125 -0.101562 0.078125 -0.09375 C 0.0859375 -0.0820312 0.09375 -0.0703125 0.09375 -0.0625 L 0.09375 0 L 0.078125 0 L 0.078125 -0.0625 C 0.078125 -0.0703125 0.0703125 -0.078125 0.0625 -0.078125 C 0.0625 -0.0859375 0.0546875 -0.09375 0.046875 -0.09375 C 0.046875 -0.09375 0.0390625 -0.0859375 0.03125 -0.078125 C 0.03125 -0.078125 0.03125 -0.0703125 0.03125 -0.0625 L 0.03125 0 L 0.015625 0 L 0.015625 -0.140625 L 0.03125 -0.140625 L 0.03125 -0.09375 C 0.0390625 -0.101562 0.0507812 -0.109375 0.0625 -0.109375 Z M 0.0625 -0.109375 "/></g></g></g><g fill="#ffffff" fill-opacity="1"><g transform="translate(21.532907, 43.211029)"><g><path d="M 0.0625 -0.015625 C 0.0703125 -0.015625 0.078125 -0.0195312 0.078125 -0.03125 L 0.09375 -0.03125 C 0.09375 -0.0195312 0.09375 -0.015625 0.09375 -0.015625 C 0.09375 -0.015625 0.0859375 -0.0078125 0.078125 0 C 0.0664062 0 0.0625 0 0.0625 0 C 0.0507812 0 0.0390625 0 0.03125 0 C 0.0195312 -0.0078125 0.015625 -0.015625 0.015625 -0.015625 C 0.015625 -0.0234375 0.015625 -0.0351562 0.015625 -0.046875 C 0.015625 -0.0546875 0.015625 -0.0664062 0.015625 -0.078125 C 0.015625 -0.0859375 0.015625 -0.09375 0.015625 -0.09375 C 0.0234375 -0.101562 0.0351562 -0.109375 0.046875 -0.109375 C 0.0664062 -0.109375 0.078125 -0.101562 0.078125 -0.09375 C 0.0859375 -0.0820312 0.09375 -0.0703125 0.09375 -0.0625 C 0.09375 -0.0625 0.09375 -0.0546875 0.09375 -0.046875 L 0.03125 -0.046875 C 0.03125 -0.0351562 0.03125 -0.03125 0.03125 -0.03125 C 0.03125 -0.03125 0.03125 -0.0234375 0.03125 -0.015625 C 0.0390625 -0.015625 0.0507812 -0.015625 0.0625 -0.015625 Z M 0.046875 -0.09375 C 0.046875 -0.09375 0.0390625 -0.0859375 0.03125 -0.078125 C 0.03125 -0.0664062 0.03125 -0.0625 0.03125 -0.0625 L 0.078125 -0.0625 C 0.078125 -0.0703125 0.0703125 -0.078125 0.0625 -0.078125 C 0.0625 -0.0859375 0.0546875 -0.09375 0.046875 -0.09375 Z M 0.046875 -0.09375 "/></g></g></g><g fill="#ffffff" fill-opacity="1"><g transform="translate(21.639226, 43.211029)"><g><path d="M 0.0625 -0.109375 C 0.0625 -0.109375 0.0625 -0.101562 0.0625 -0.09375 C 0.0703125 -0.09375 0.078125 -0.09375 0.078125 -0.09375 L 0.0625 -0.078125 C 0.0507812 -0.078125 0.0390625 -0.0703125 0.03125 -0.0625 L 0.03125 0 L 0.015625 0 L 0.015625 -0.09375 C 0.015625 -0.101562 0.015625 -0.109375 0.015625 -0.109375 L 0.03125 -0.109375 C 0.03125 -0.109375 0.03125 -0.101562 0.03125 -0.09375 C 0.0390625 -0.101562 0.0507812 -0.109375 0.0625 -0.109375 Z M 0.0625 -0.109375 "/></g></g></g><g fill="#ffffff" fill-opacity="1"><g transform="translate(21.712543, 43.211029)"><g><path d="M 0.0625 -0.015625 C 0.0703125 -0.015625 0.078125 -0.0195312 0.078125 -0.03125 L 0.09375 -0.03125 C 0.09375 -0.0195312 0.09375 -0.015625 0.09375 -0.015625 C 0.09375 -0.015625 0.0859375 -0.0078125 0.078125 0 C 0.0664062 0 0.0625 0 0.0625 0 C 0.0507812 0 0.0390625 0 0.03125 0 C 0.0195312 -0.0078125 0.015625 -0.015625 0.015625 -0.015625 C 0.015625 -0.0234375 0.015625 -0.0351562 0.015625 -0.046875 C 0.015625 -0.0546875 0.015625 -0.0664062 0.015625 -0.078125 C 0.015625 -0.0859375 0.015625 -0.09375 0.015625 -0.09375 C 0.0234375 -0.101562 0.0351562 -0.109375 0.046875 -0.109375 C 0.0664062 -0.109375 0.078125 -0.101562 0.078125 -0.09375 C 0.0859375 -0.0820312 0.09375 -0.0703125 0.09375 -0.0625 C 0.09375 -0.0625 0.09375 -0.0546875 0.09375 -0.046875 L 0.03125 -0.046875 C 0.03125 -0.0351562 0.03125 -0.03125 0.03125 -0.03125 C 0.03125 -0.03125 0.03125 -0.0234375 0.03125 -0.015625 C 0.0390625 -0.015625 0.0507812 -0.015625 0.0625 -0.015625 Z M 0.046875 -0.09375 C 0.046875 -0.09375 0.0390625 -0.0859375 0.03125 -0.078125 C 0.03125 -0.0664062 0.03125 -0.0625 0.03125 -0.0625 L 0.078125 -0.0625 C 0.078125 -0.0703125 0.0703125 -0.078125 0.0625 -0.078125 C 0.0625 -0.0859375 0.0546875 -0.09375 0.046875 -0.09375 Z M 0.046875 -0.09375 "/></g></g></g><path fill="#2941ab" d="M 11.046875 32.113281 C 9.910156 32.113281 8.992188 32.917969 8.992188 33.910156 C 8.992188 32.917969 8.074219 32.113281 6.941406 32.113281 C 5.988281 32.113281 4.988281 32.90625 4.933594 33.851562 C 4.855469 35.117188 5.78125 36.300781 6.636719 37.125 C 7.253906 37.714844 7.945312 38.265625 8.652344 38.742188 C 8.679688 38.761719 8.949219 38.96875 8.992188 38.945312 C 10.675781 38 13.097656 36.0625 13.097656 33.910156 C 13.097656 32.917969 12.179688 32.113281 11.046875 32.113281 Z M 11.046875 32.113281 " fill-opacity="1" fill-rule="nonzero"/><path fill="#0c008f" d="M 8.984375 39.222656 C 8.871094 39.222656 8.769531 39.167969 8.515625 38.980469 L 8.496094 38.96875 C 7.742188 38.460938 7.054688 37.90625 6.445312 37.324219 C 5.191406 36.121094 4.589844 34.945312 4.65625 33.835938 C 4.71875 32.789062 5.808594 31.835938 6.941406 31.835938 C 7.824219 31.835938 8.597656 32.277344 8.992188 32.929688 C 9.101562 32.746094 9.242188 32.578125 9.410156 32.429688 C 9.851562 32.046875 10.429688 31.835938 11.046875 31.835938 C 11.660156 31.835938 12.242188 32.046875 12.679688 32.429688 C 13.128906 32.824219 13.375 33.347656 13.375 33.910156 C 13.375 36.664062 9.835938 38.785156 9.128906 39.183594 C 9.085938 39.207031 9.035156 39.222656 8.984375 39.222656 Z M 6.941406 32.386719 C 6.097656 32.386719 5.253906 33.109375 5.207031 33.871094 C 5.136719 35.042969 6.050781 36.179688 6.828125 36.925781 C 7.40625 37.480469 8.089844 38.027344 8.804688 38.511719 C 8.8125 38.515625 8.824219 38.523438 8.839844 38.535156 C 8.902344 38.582031 8.945312 38.613281 8.976562 38.632812 C 10.78125 37.59375 12.824219 35.765625 12.824219 33.910156 C 12.824219 33.511719 12.644531 33.132812 12.316406 32.847656 C 11.976562 32.550781 11.527344 32.386719 11.046875 32.386719 C 10.5625 32.386719 10.113281 32.550781 9.777344 32.847656 C 9.449219 33.132812 9.269531 33.511719 9.269531 33.910156 C 9.269531 34.0625 9.144531 34.1875 8.992188 34.1875 C 8.839844 34.1875 8.714844 34.0625 8.714844 33.910156 C 8.714844 33.070312 7.917969 32.386719 6.941406 32.386719 Z M 6.941406 32.386719 " fill-opacity="1" fill-rule="nonzero"/><g clip-path="url(#id1)"><path fill="#2941ab" d="M 14.109375 29.765625 C 11.296875 26.953125 6.730469 26.953125 3.917969 29.765625 C 1.351562 32.332031 1.125 36.351562 3.238281 39.171875 L 9.011719 47.773438 L 14.625 39.386719 C 15.707031 38.046875 16.242188 36.40625 16.21875 34.773438 C 16.199219 32.957031 15.496094 31.152344 14.109375 29.765625 Z M 13.28125 39.128906 C 13.199219 39.210938 13.117188 39.285156 13.035156 39.363281 C 11.738281 40.523438 10.058594 41.023438 8.433594 40.867188 C 7.128906 40.742188 5.855469 40.191406 4.84375 39.222656 C 4.808594 39.191406 4.777344 39.160156 4.746094 39.128906 C 2.390625 36.773438 2.390625 32.953125 4.746094 30.597656 C 7.101562 28.238281 10.925781 28.238281 13.28125 30.597656 C 14.441406 31.753906 15.027344 33.269531 15.046875 34.789062 C 15.066406 36.355469 14.476562 37.929688 13.28125 39.128906 Z M 13.28125 39.128906 " fill-opacity="1" fill-rule="nonzero"/></g><g clip-path="url(#id2)"><path fill="#0c008f" d="M 9.011719 48.050781 C 8.921875 48.050781 8.835938 48.003906 8.785156 47.929688 L 3.007812 39.328125 C 3.007812 39.328125 3.007812 39.324219 3.003906 39.324219 C 1.945312 37.898438 1.425781 36.136719 1.546875 34.355469 C 1.667969 32.550781 2.441406 30.851562 3.722656 29.570312 C 5.136719 28.15625 7.015625 27.378906 9.015625 27.378906 C 11.011719 27.378906 12.894531 28.15625 14.304688 29.570312 C 15.695312 30.957031 16.472656 32.804688 16.496094 34.769531 C 16.519531 36.507812 15.933594 38.203125 14.847656 39.550781 L 9.242188 47.929688 C 9.191406 48.003906 9.105469 48.050781 9.011719 48.050781 Z M 3.476562 39.035156 L 9.011719 47.277344 L 14.394531 39.234375 C 14.402344 39.226562 14.40625 39.21875 14.410156 39.210938 C 15.417969 37.964844 15.964844 36.390625 15.945312 34.777344 C 15.921875 32.957031 15.203125 31.246094 13.917969 29.960938 C 12.605469 28.652344 10.867188 27.929688 9.015625 27.929688 C 7.164062 27.929688 5.421875 28.652344 4.113281 29.960938 C 1.691406 32.382812 1.410156 36.273438 3.457031 39.007812 C 3.464844 39.015625 3.472656 39.027344 3.476562 39.035156 Z M 9.011719 41.171875 C 8.8125 41.171875 8.605469 41.160156 8.40625 41.140625 C 6.980469 41.003906 5.683594 40.410156 4.652344 39.421875 C 4.617188 39.390625 4.585938 39.355469 4.550781 39.324219 C 2.09375 36.863281 2.09375 32.859375 4.550781 30.402344 C 5.742188 29.210938 7.328125 28.554688 9.015625 28.554688 C 10.699219 28.554688 12.285156 29.210938 13.476562 30.402344 C 14.648438 31.570312 15.300781 33.128906 15.324219 34.785156 C 15.34375 36.5 14.6875 38.113281 13.476562 39.324219 C 13.398438 39.402344 13.3125 39.480469 13.21875 39.566406 C 12.0625 40.601562 10.570312 41.171875 9.011719 41.171875 Z M 9.015625 29.105469 C 7.476562 29.105469 6.03125 29.703125 4.941406 30.792969 C 2.699219 33.035156 2.699219 36.6875 4.941406 38.933594 C 4.972656 38.960938 5.003906 38.992188 5.03125 39.019531 C 5.976562 39.921875 7.160156 40.464844 8.457031 40.59375 C 8.640625 40.609375 8.828125 40.621094 9.011719 40.621094 C 10.433594 40.621094 11.796875 40.097656 12.851562 39.15625 C 12.9375 39.078125 13.015625 39.003906 13.085938 38.933594 C 14.191406 37.828125 14.789062 36.355469 14.769531 34.792969 C 14.753906 33.28125 14.152344 31.859375 13.085938 30.792969 C 12 29.703125 10.550781 29.105469 9.015625 29.105469 Z M 9.015625 29.105469 " fill-opacity="1" fill-rule="nonzero"/></g><path fill="#0c008f" d="M 13.550781 36.957031 C 13.523438 36.957031 13.5 36.949219 13.472656 36.941406 C 13.375 36.898438 13.328125 36.78125 13.371094 36.679688 C 13.375 36.664062 13.386719 36.644531 13.398438 36.621094 C 13.445312 36.523438 13.546875 36.320312 13.667969 35.832031 C 13.695312 35.726562 13.800781 35.660156 13.90625 35.6875 C 14.011719 35.710938 14.078125 35.820312 14.050781 35.925781 C 13.921875 36.457031 13.804688 36.6875 13.75 36.796875 C 13.742188 36.8125 13.738281 36.824219 13.734375 36.835938 C 13.699219 36.910156 13.628906 36.957031 13.550781 36.957031 Z M 13.550781 36.957031 " fill-opacity="1" fill-rule="nonzero"/><path fill="#0c008f" d="M 14.078125 34.851562 C 14.074219 34.851562 14.070312 34.851562 14.066406 34.851562 C 13.957031 34.84375 13.875 34.75 13.882812 34.640625 C 14.074219 31.816406 11.28125 30.734375 11.25 30.722656 C 11.148438 30.683594 11.097656 30.570312 11.136719 30.46875 C 11.175781 30.367188 11.289062 30.316406 11.390625 30.351562 C 11.421875 30.363281 14.488281 31.550781 14.277344 34.667969 C 14.269531 34.773438 14.183594 34.851562 14.078125 34.851562 Z M 14.078125 34.851562 " fill-opacity="1" fill-rule="nonzero"/><path fill="#2941ab" d="M 6.570312 42.5625 L 7.808594 44.445312 " fill-opacity="1" fill-rule="nonzero"/><path fill="#0c008f" d="M 7.808594 44.640625 C 7.746094 44.640625 7.679688 44.609375 7.644531 44.554688 L 6.40625 42.671875 C 6.347656 42.582031 6.371094 42.460938 6.464844 42.398438 C 6.554688 42.339844 6.675781 42.363281 6.738281 42.457031 L 7.972656 44.335938 C 8.03125 44.425781 8.007812 44.550781 7.917969 44.609375 C 7.882812 44.632812 7.84375 44.640625 7.808594 44.640625 Z M 7.808594 44.640625 " fill-opacity="1" fill-rule="nonzero"/><path fill="#2941ab" d="M 5.851562 41.390625 L 6.007812 41.628906 " fill-opacity="1" fill-rule="nonzero"/><path fill="#0c008f" d="M 6.007812 41.828125 C 5.941406 41.828125 5.878906 41.796875 5.839844 41.738281 L 5.6875 41.496094 C 5.628906 41.40625 5.65625 41.28125 5.746094 41.222656 C 5.835938 41.164062 5.960938 41.191406 6.019531 41.285156 L 6.171875 41.523438 C 6.230469 41.617188 6.203125 41.738281 6.113281 41.796875 C 6.078125 41.816406 6.042969 41.828125 6.007812 41.828125 Z M 6.007812 41.828125 " fill-opacity="1" fill-rule="nonzero"/><g clip-path="url(#id3)"><path fill="#f8f9f0" d="M 9.03125 28.601562 C 5.503906 28.601562 2.644531 31.460938 2.644531 34.988281 C 2.644531 38.515625 5.503906 41.375 9.03125 41.375 C 12.5625 41.375 15.421875 38.515625 15.421875 34.988281 C 15.421875 31.460938 12.5625 28.601562 9.03125 28.601562 " fill-opacity="1" fill-rule="nonzero"/></g><path fill="#1cd760" d="M 11.03125 37.589844 L 10.144531 37.589844 L 10.144531 36.324219 L 11.03125 36.324219 Z M 9.855469 37.589844 L 8.96875 37.589844 L 8.96875 35.277344 L 9.855469 35.277344 Z M 8.679688 37.589844 L 7.789062 37.589844 L 7.789062 33.96875 L 8.679688 33.96875 Z M 7.5 37.589844 L 6.613281 37.589844 L 6.613281 32.925781 L 7.5 32.925781 Z M 8.824219 30.953125 C 6.597656 30.953125 4.789062 32.761719 4.789062 34.992188 C 4.789062 37.21875 6.597656 39.027344 8.824219 39.027344 C 11.054688 39.027344 12.863281 37.21875 12.863281 34.992188 C 12.863281 32.761719 11.054688 30.953125 8.824219 30.953125 " fill-opacity="1" fill-rule="nonzero"/></svg>