<svg xmlns="http://www.w3.org/2000/svg" xmlns:xlink="http://www.w3.org/1999/xlink" width="100" zoomAndPan="magnify" viewBox="0 0 75 36.000001" height="48" preserveAspectRatio="xMidYMid meet" version="1.0"><defs><g/><clipPath id="id1"><path d="M 2.109375 7.238281 L 17 7.238281 L 17 27.785156 L 2.109375 27.785156 Z M 2.109375 7.238281 " clip-rule="nonzero"/></clipPath><clipPath id="id2"><path d="M 2.109375 7.238281 L 17.089844 7.238281 L 17.089844 27.785156 L 2.109375 27.785156 Z M 2.109375 7.238281 " clip-rule="nonzero"/></clipPath><clipPath id="id3"><path d="M 3.585938 8.855469 L 16.019531 8.855469 L 16.019531 21.285156 L 3.585938 21.285156 Z M 3.585938 8.855469 " clip-rule="nonzero"/></clipPath></defs><g fill="#000000" fill-opacity="1"><g transform="translate(20.222799, 20.211413)"><g><path d="M 3.375 0.09375 C 2.769531 0.09375 2.238281 -0.00390625 1.78125 -0.203125 C 1.332031 -0.398438 0.984375 -0.6875 0.734375 -1.0625 C 0.484375 -1.4375 0.359375 -1.867188 0.359375 -2.359375 L 0.359375 -2.5 C 0.359375 -2.5625 0.375 -2.609375 0.40625 -2.640625 C 0.445312 -2.679688 0.5 -2.703125 0.5625 -2.703125 L 2 -2.703125 C 2.0625 -2.703125 2.109375 -2.6875 2.140625 -2.65625 C 2.179688 -2.632812 2.203125 -2.609375 2.203125 -2.578125 L 2.203125 -2.4375 C 2.203125 -2.195312 2.320312 -1.984375 2.5625 -1.796875 C 2.8125 -1.609375 3.128906 -1.515625 3.515625 -1.515625 C 3.835938 -1.515625 4.078125 -1.582031 4.234375 -1.71875 C 4.398438 -1.863281 4.484375 -2.03125 4.484375 -2.21875 C 4.484375 -2.425781 4.390625 -2.585938 4.203125 -2.703125 C 4.015625 -2.816406 3.6875 -2.953125 3.21875 -3.109375 L 2.96875 -3.1875 C 2.488281 -3.34375 2.066406 -3.507812 1.703125 -3.6875 C 1.335938 -3.875 1.023438 -4.128906 0.765625 -4.453125 C 0.515625 -4.785156 0.390625 -5.191406 0.390625 -5.671875 C 0.390625 -6.140625 0.507812 -6.546875 0.75 -6.890625 C 1 -7.242188 1.335938 -7.515625 1.765625 -7.703125 C 2.203125 -7.890625 2.695312 -7.984375 3.25 -7.984375 C 3.832031 -7.984375 4.351562 -7.878906 4.8125 -7.671875 C 5.269531 -7.460938 5.628906 -7.164062 5.890625 -6.78125 C 6.160156 -6.394531 6.296875 -5.953125 6.296875 -5.453125 L 6.296875 -5.375 C 6.296875 -5.3125 6.273438 -5.257812 6.234375 -5.21875 C 6.203125 -5.1875 6.15625 -5.171875 6.09375 -5.171875 L 4.65625 -5.171875 C 4.59375 -5.171875 4.539062 -5.175781 4.5 -5.1875 C 4.46875 -5.207031 4.453125 -5.238281 4.453125 -5.28125 L 4.453125 -5.375 C 4.453125 -5.644531 4.332031 -5.878906 4.09375 -6.078125 C 3.863281 -6.285156 3.554688 -6.390625 3.171875 -6.390625 C 2.878906 -6.390625 2.648438 -6.328125 2.484375 -6.203125 C 2.316406 -6.085938 2.234375 -5.921875 2.234375 -5.703125 C 2.234375 -5.535156 2.285156 -5.394531 2.390625 -5.28125 C 2.492188 -5.175781 2.65625 -5.078125 2.875 -4.984375 C 3.101562 -4.890625 3.445312 -4.765625 3.90625 -4.609375 C 4.425781 -4.429688 4.832031 -4.273438 5.125 -4.140625 C 5.425781 -4.003906 5.703125 -3.78125 5.953125 -3.46875 C 6.210938 -3.164062 6.34375 -2.769531 6.34375 -2.28125 C 6.34375 -1.800781 6.21875 -1.382812 5.96875 -1.03125 C 5.726562 -0.675781 5.378906 -0.398438 4.921875 -0.203125 C 4.472656 -0.00390625 3.957031 0.09375 3.375 0.09375 Z M 3.375 0.09375 "/></g></g></g><g fill="#000000" fill-opacity="1"><g transform="translate(26.932369, 20.211413)"><g><path d="M 5.953125 -4.1875 C 6.078125 -3.8125 6.140625 -3.378906 6.140625 -2.890625 C 6.140625 -2.359375 6.0625 -1.882812 5.90625 -1.46875 C 5.726562 -1 5.445312 -0.617188 5.0625 -0.328125 C 4.675781 -0.046875 4.238281 0.09375 3.75 0.09375 C 3.1875 0.09375 2.757812 -0.078125 2.46875 -0.421875 C 2.445312 -0.453125 2.425781 -0.460938 2.40625 -0.453125 C 2.382812 -0.441406 2.375 -0.421875 2.375 -0.390625 L 2.375 1.859375 C 2.375 1.921875 2.351562 1.96875 2.3125 2 C 2.28125 2.039062 2.234375 2.0625 2.171875 2.0625 L 0.703125 2.0625 C 0.648438 2.0625 0.601562 2.039062 0.5625 2 C 0.519531 1.96875 0.5 1.921875 0.5 1.859375 L 0.5 -5.625 C 0.5 -5.6875 0.519531 -5.734375 0.5625 -5.765625 C 0.601562 -5.804688 0.648438 -5.828125 0.703125 -5.828125 L 2.171875 -5.828125 C 2.234375 -5.828125 2.28125 -5.804688 2.3125 -5.765625 C 2.351562 -5.734375 2.375 -5.6875 2.375 -5.625 L 2.375 -5.359375 C 2.375 -5.316406 2.382812 -5.289062 2.40625 -5.28125 C 2.425781 -5.28125 2.445312 -5.296875 2.46875 -5.328125 C 2.757812 -5.722656 3.1875 -5.921875 3.75 -5.921875 C 4.238281 -5.921875 4.691406 -5.757812 5.109375 -5.4375 C 5.523438 -5.113281 5.804688 -4.695312 5.953125 -4.1875 Z M 3.921875 -1.9375 C 4.054688 -2.1875 4.125 -2.515625 4.125 -2.921875 C 4.125 -3.304688 4.0625 -3.617188 3.9375 -3.859375 C 3.78125 -4.140625 3.550781 -4.28125 3.25 -4.28125 C 2.96875 -4.28125 2.742188 -4.132812 2.578125 -3.84375 C 2.453125 -3.601562 2.390625 -3.296875 2.390625 -2.921875 C 2.390625 -2.503906 2.457031 -2.171875 2.59375 -1.921875 C 2.75 -1.671875 2.96875 -1.546875 3.25 -1.546875 C 3.539062 -1.546875 3.765625 -1.675781 3.921875 -1.9375 Z M 3.921875 -1.9375 "/></g></g></g><g fill="#000000" fill-opacity="1"><g transform="translate(33.281082, 20.211413)"><g><path d="M 3.140625 0.09375 C 2.460938 0.09375 1.890625 -0.0859375 1.421875 -0.453125 C 0.953125 -0.816406 0.632812 -1.304688 0.46875 -1.921875 C 0.382812 -2.222656 0.34375 -2.5625 0.34375 -2.9375 C 0.34375 -3.3125 0.390625 -3.675781 0.484375 -4.03125 C 0.660156 -4.625 0.984375 -5.085938 1.453125 -5.421875 C 1.921875 -5.753906 2.488281 -5.921875 3.15625 -5.921875 C 3.820312 -5.921875 4.382812 -5.753906 4.84375 -5.421875 C 5.300781 -5.085938 5.617188 -4.625 5.796875 -4.03125 C 5.898438 -3.695312 5.953125 -3.335938 5.953125 -2.953125 C 5.953125 -2.609375 5.910156 -2.28125 5.828125 -1.96875 C 5.671875 -1.332031 5.351562 -0.828125 4.875 -0.453125 C 4.40625 -0.0859375 3.828125 0.09375 3.140625 0.09375 Z M 3.140625 -1.515625 C 3.359375 -1.515625 3.539062 -1.582031 3.6875 -1.71875 C 3.84375 -1.851562 3.945312 -2.046875 4 -2.296875 C 4.050781 -2.484375 4.078125 -2.695312 4.078125 -2.9375 C 4.078125 -3.15625 4.050781 -3.375 4 -3.59375 C 3.9375 -3.820312 3.832031 -4 3.6875 -4.125 C 3.539062 -4.257812 3.359375 -4.328125 3.140625 -4.328125 C 2.921875 -4.328125 2.738281 -4.257812 2.59375 -4.125 C 2.457031 -4 2.359375 -3.820312 2.296875 -3.59375 C 2.242188 -3.425781 2.21875 -3.207031 2.21875 -2.9375 C 2.21875 -2.695312 2.242188 -2.484375 2.296875 -2.296875 C 2.359375 -2.046875 2.460938 -1.851562 2.609375 -1.71875 C 2.753906 -1.582031 2.929688 -1.515625 3.140625 -1.515625 Z M 3.140625 -1.515625 "/></g></g></g><g fill="#000000" fill-opacity="1"><g transform="translate(39.57342, 20.211413)"><g><path d="M 4.078125 -4.53125 C 4.078125 -4.46875 4.054688 -4.414062 4.015625 -4.375 C 3.972656 -4.34375 3.925781 -4.328125 3.875 -4.328125 L 2.9375 -4.328125 C 2.882812 -4.328125 2.859375 -4.300781 2.859375 -4.25 L 2.859375 -2.28125 C 2.859375 -1.851562 3.03125 -1.640625 3.375 -1.640625 L 3.71875 -1.640625 C 3.78125 -1.640625 3.828125 -1.617188 3.859375 -1.578125 C 3.898438 -1.535156 3.921875 -1.488281 3.921875 -1.4375 L 3.921875 -0.25 C 3.921875 -0.125 3.859375 -0.0546875 3.734375 -0.046875 C 3.390625 -0.0234375 3.144531 -0.015625 3 -0.015625 C 2.34375 -0.015625 1.859375 -0.117188 1.546875 -0.328125 C 1.234375 -0.546875 1.070312 -0.941406 1.0625 -1.515625 L 1.0625 -4.25 C 1.0625 -4.300781 1.035156 -4.328125 0.984375 -4.328125 L 0.421875 -4.328125 C 0.367188 -4.328125 0.320312 -4.34375 0.28125 -4.375 C 0.238281 -4.414062 0.21875 -4.46875 0.21875 -4.53125 L 0.21875 -5.625 C 0.21875 -5.6875 0.238281 -5.734375 0.28125 -5.765625 C 0.320312 -5.804688 0.367188 -5.828125 0.421875 -5.828125 L 0.984375 -5.828125 C 1.035156 -5.828125 1.0625 -5.851562 1.0625 -5.90625 L 1.0625 -7.1875 C 1.0625 -7.25 1.078125 -7.296875 1.109375 -7.328125 C 1.148438 -7.367188 1.203125 -7.390625 1.265625 -7.390625 L 2.65625 -7.390625 C 2.707031 -7.390625 2.753906 -7.367188 2.796875 -7.328125 C 2.835938 -7.296875 2.859375 -7.25 2.859375 -7.1875 L 2.859375 -5.90625 C 2.859375 -5.851562 2.882812 -5.828125 2.9375 -5.828125 L 3.875 -5.828125 C 3.925781 -5.828125 3.972656 -5.804688 4.015625 -5.765625 C 4.054688 -5.734375 4.078125 -5.6875 4.078125 -5.625 Z M 4.078125 -4.53125 "/></g></g></g><g fill="#000000" fill-opacity="1"><g transform="translate(43.926177, 20.211413)"><g><path d="M 1.5 -6.21875 C 1.164062 -6.21875 0.894531 -6.316406 0.6875 -6.515625 C 0.488281 -6.710938 0.390625 -6.972656 0.390625 -7.296875 C 0.390625 -7.609375 0.488281 -7.863281 0.6875 -8.0625 C 0.894531 -8.257812 1.164062 -8.359375 1.5 -8.359375 C 1.832031 -8.359375 2.097656 -8.257812 2.296875 -8.0625 C 2.503906 -7.863281 2.609375 -7.609375 2.609375 -7.296875 C 2.609375 -6.972656 2.503906 -6.710938 2.296875 -6.515625 C 2.097656 -6.316406 1.832031 -6.21875 1.5 -6.21875 Z M 0.765625 0 C 0.703125 0 0.648438 -0.015625 0.609375 -0.046875 C 0.578125 -0.0859375 0.5625 -0.140625 0.5625 -0.203125 L 0.5625 -5.625 C 0.5625 -5.6875 0.578125 -5.734375 0.609375 -5.765625 C 0.648438 -5.804688 0.703125 -5.828125 0.765625 -5.828125 L 2.234375 -5.828125 C 2.296875 -5.828125 2.34375 -5.804688 2.375 -5.765625 C 2.414062 -5.734375 2.4375 -5.6875 2.4375 -5.625 L 2.4375 -0.203125 C 2.4375 -0.140625 2.414062 -0.0859375 2.375 -0.046875 C 2.34375 -0.015625 2.296875 0 2.234375 0 Z M 0.765625 0 "/></g></g></g><g fill="#000000" fill-opacity="1"><g transform="translate(46.914476, 20.211413)"><g><path d="M 7.171875 -5.921875 C 7.765625 -5.921875 8.222656 -5.738281 8.546875 -5.375 C 8.878906 -5.019531 9.046875 -4.515625 9.046875 -3.859375 L 9.046875 -0.203125 C 9.046875 -0.140625 9.023438 -0.0859375 8.984375 -0.046875 C 8.953125 -0.015625 8.90625 0 8.84375 0 L 7.390625 0 C 7.328125 0 7.273438 -0.015625 7.234375 -0.046875 C 7.203125 -0.0859375 7.1875 -0.140625 7.1875 -0.203125 L 7.1875 -3.453125 C 7.1875 -3.703125 7.117188 -3.910156 6.984375 -4.078125 C 6.859375 -4.242188 6.6875 -4.328125 6.46875 -4.328125 C 6.25 -4.328125 6.066406 -4.242188 5.921875 -4.078125 C 5.785156 -3.921875 5.71875 -3.710938 5.71875 -3.453125 L 5.71875 -0.203125 C 5.71875 -0.140625 5.695312 -0.0859375 5.65625 -0.046875 C 5.625 -0.015625 5.578125 0 5.515625 0 L 4.046875 0 C 3.984375 0 3.929688 -0.015625 3.890625 -0.046875 C 3.859375 -0.0859375 3.84375 -0.140625 3.84375 -0.203125 L 3.84375 -3.453125 C 3.84375 -3.703125 3.769531 -3.910156 3.625 -4.078125 C 3.488281 -4.242188 3.316406 -4.328125 3.109375 -4.328125 C 2.898438 -4.328125 2.726562 -4.257812 2.59375 -4.125 C 2.457031 -4 2.375 -3.832031 2.34375 -3.625 L 2.34375 -0.203125 C 2.34375 -0.140625 2.320312 -0.0859375 2.28125 -0.046875 C 2.25 -0.015625 2.203125 0 2.140625 0 L 0.671875 0 C 0.617188 0 0.570312 -0.015625 0.53125 -0.046875 C 0.488281 -0.0859375 0.46875 -0.140625 0.46875 -0.203125 L 0.46875 -5.625 C 0.46875 -5.6875 0.488281 -5.734375 0.53125 -5.765625 C 0.570312 -5.804688 0.617188 -5.828125 0.671875 -5.828125 L 2.140625 -5.828125 C 2.203125 -5.828125 2.25 -5.804688 2.28125 -5.765625 C 2.320312 -5.734375 2.34375 -5.6875 2.34375 -5.625 L 2.34375 -5.234375 C 2.34375 -5.191406 2.351562 -5.171875 2.375 -5.171875 C 2.394531 -5.171875 2.414062 -5.1875 2.4375 -5.21875 C 2.738281 -5.6875 3.210938 -5.921875 3.859375 -5.921875 C 4.222656 -5.921875 4.546875 -5.835938 4.828125 -5.671875 C 5.109375 -5.515625 5.332031 -5.28125 5.5 -4.96875 C 5.507812 -4.945312 5.523438 -4.9375 5.546875 -4.9375 C 5.566406 -4.9375 5.582031 -4.953125 5.59375 -4.984375 C 5.90625 -5.609375 6.429688 -5.921875 7.171875 -5.921875 Z M 7.171875 -5.921875 "/></g></g></g><g fill="#000000" fill-opacity="1"><g transform="translate(56.386811, 20.211413)"><g><path d="M 2.921875 -5.921875 C 3.421875 -5.921875 3.875 -5.835938 4.28125 -5.671875 C 4.6875 -5.503906 5.003906 -5.269531 5.234375 -4.96875 C 5.460938 -4.675781 5.578125 -4.347656 5.578125 -3.984375 L 5.578125 -0.203125 C 5.578125 -0.140625 5.554688 -0.0859375 5.515625 -0.046875 C 5.484375 -0.015625 5.4375 0 5.375 0 L 3.921875 0 C 3.859375 0 3.804688 -0.015625 3.765625 -0.046875 C 3.734375 -0.0859375 3.71875 -0.140625 3.71875 -0.203125 L 3.71875 -0.421875 C 3.71875 -0.460938 3.707031 -0.484375 3.6875 -0.484375 C 3.664062 -0.492188 3.644531 -0.488281 3.625 -0.46875 C 3.320312 -0.09375 2.835938 0.09375 2.171875 0.09375 C 1.578125 0.09375 1.101562 -0.046875 0.75 -0.328125 C 0.394531 -0.609375 0.21875 -1.023438 0.21875 -1.578125 C 0.21875 -2.160156 0.414062 -2.609375 0.8125 -2.921875 C 1.21875 -3.234375 1.800781 -3.390625 2.5625 -3.390625 L 3.625 -3.390625 C 3.6875 -3.390625 3.71875 -3.414062 3.71875 -3.46875 L 3.71875 -3.671875 C 3.71875 -3.867188 3.648438 -4.023438 3.515625 -4.140625 C 3.378906 -4.265625 3.191406 -4.328125 2.953125 -4.328125 C 2.785156 -4.328125 2.640625 -4.296875 2.515625 -4.234375 C 2.390625 -4.179688 2.300781 -4.101562 2.25 -4 C 2.207031 -3.945312 2.171875 -3.90625 2.140625 -3.875 C 2.109375 -3.851562 2.066406 -3.847656 2.015625 -3.859375 L 0.5 -4.046875 C 0.363281 -4.066406 0.300781 -4.117188 0.3125 -4.203125 C 0.351562 -4.523438 0.488281 -4.816406 0.71875 -5.078125 C 0.957031 -5.335938 1.265625 -5.539062 1.640625 -5.6875 C 2.023438 -5.84375 2.453125 -5.921875 2.921875 -5.921875 Z M 2.734375 -1.25 C 3.015625 -1.25 3.25 -1.320312 3.4375 -1.46875 C 3.625 -1.613281 3.71875 -1.804688 3.71875 -2.046875 L 3.71875 -2.296875 C 3.71875 -2.347656 3.6875 -2.375 3.625 -2.375 L 2.984375 -2.375 C 2.691406 -2.375 2.46875 -2.328125 2.3125 -2.234375 C 2.164062 -2.140625 2.09375 -1.992188 2.09375 -1.796875 C 2.09375 -1.628906 2.144531 -1.492188 2.25 -1.390625 C 2.363281 -1.296875 2.523438 -1.25 2.734375 -1.25 Z M 2.734375 -1.25 "/></g></g></g><g fill="#000000" fill-opacity="1"><g transform="translate(62.419786, 20.211413)"><g><path d="M 5.953125 -4.1875 C 6.078125 -3.8125 6.140625 -3.378906 6.140625 -2.890625 C 6.140625 -2.359375 6.0625 -1.882812 5.90625 -1.46875 C 5.726562 -1 5.445312 -0.617188 5.0625 -0.328125 C 4.675781 -0.046875 4.238281 0.09375 3.75 0.09375 C 3.1875 0.09375 2.757812 -0.078125 2.46875 -0.421875 C 2.445312 -0.453125 2.425781 -0.460938 2.40625 -0.453125 C 2.382812 -0.441406 2.375 -0.421875 2.375 -0.390625 L 2.375 1.859375 C 2.375 1.921875 2.351562 1.96875 2.3125 2 C 2.28125 2.039062 2.234375 2.0625 2.171875 2.0625 L 0.703125 2.0625 C 0.648438 2.0625 0.601562 2.039062 0.5625 2 C 0.519531 1.96875 0.5 1.921875 0.5 1.859375 L 0.5 -5.625 C 0.5 -5.6875 0.519531 -5.734375 0.5625 -5.765625 C 0.601562 -5.804688 0.648438 -5.828125 0.703125 -5.828125 L 2.171875 -5.828125 C 2.234375 -5.828125 2.28125 -5.804688 2.3125 -5.765625 C 2.351562 -5.734375 2.375 -5.6875 2.375 -5.625 L 2.375 -5.359375 C 2.375 -5.316406 2.382812 -5.289062 2.40625 -5.28125 C 2.425781 -5.28125 2.445312 -5.296875 2.46875 -5.328125 C 2.757812 -5.722656 3.1875 -5.921875 3.75 -5.921875 C 4.238281 -5.921875 4.691406 -5.757812 5.109375 -5.4375 C 5.523438 -5.113281 5.804688 -4.695312 5.953125 -4.1875 Z M 3.921875 -1.9375 C 4.054688 -2.1875 4.125 -2.515625 4.125 -2.921875 C 4.125 -3.304688 4.0625 -3.617188 3.9375 -3.859375 C 3.78125 -4.140625 3.550781 -4.28125 3.25 -4.28125 C 2.96875 -4.28125 2.742188 -4.132812 2.578125 -3.84375 C 2.453125 -3.601562 2.390625 -3.296875 2.390625 -2.921875 C 2.390625 -2.503906 2.457031 -2.171875 2.59375 -1.921875 C 2.75 -1.671875 2.96875 -1.546875 3.25 -1.546875 C 3.539062 -1.546875 3.765625 -1.675781 3.921875 -1.9375 Z M 3.921875 -1.9375 "/></g></g></g><g fill="#ffffff" fill-opacity="1"><g transform="translate(20.222799, 23.070198)"><g><path d="M 0.0625 0 C 0.0507812 0 0.0390625 0 0.03125 0 C 0.0195312 -0.0078125 0.015625 -0.015625 0.015625 -0.015625 C 0.015625 -0.0234375 0.015625 -0.03125 0.015625 -0.03125 L 0.015625 -0.046875 L 0.03125 -0.046875 L 0.03125 -0.03125 C 0.03125 -0.03125 0.03125 -0.0234375 0.03125 -0.015625 C 0.0390625 -0.015625 0.0507812 -0.015625 0.0625 -0.015625 C 0.0703125 -0.015625 0.078125 -0.015625 0.078125 -0.015625 C 0.078125 -0.0234375 0.078125 -0.03125 0.078125 -0.03125 C 0.078125 -0.0390625 0.078125 -0.046875 0.078125 -0.046875 C 0.078125 -0.046875 0.0703125 -0.046875 0.0625 -0.046875 C 0.0625 -0.0546875 0.0546875 -0.0625 0.046875 -0.0625 C 0.0351562 -0.0625 0.0234375 -0.0625 0.015625 -0.0625 C 0.015625 -0.0703125 0.015625 -0.078125 0.015625 -0.078125 C 0.015625 -0.0859375 0.015625 -0.0976562 0.015625 -0.109375 C 0.015625 -0.109375 0.015625 -0.113281 0.015625 -0.125 C 0.0234375 -0.132812 0.0351562 -0.140625 0.046875 -0.140625 C 0.0546875 -0.140625 0.0664062 -0.132812 0.078125 -0.125 C 0.0859375 -0.125 0.09375 -0.117188 0.09375 -0.109375 C 0.101562 -0.109375 0.109375 -0.101562 0.109375 -0.09375 C 0.109375 -0.09375 0.101562 -0.09375 0.09375 -0.09375 C 0.09375 -0.09375 0.0859375 -0.09375 0.078125 -0.09375 C 0.078125 -0.101562 0.0703125 -0.109375 0.0625 -0.109375 C 0.0625 -0.117188 0.0546875 -0.125 0.046875 -0.125 C 0.046875 -0.125 0.0390625 -0.117188 0.03125 -0.109375 C 0.03125 -0.0976562 0.03125 -0.09375 0.03125 -0.09375 C 0.03125 -0.09375 0.03125 -0.0859375 0.03125 -0.078125 C 0.0390625 -0.078125 0.0507812 -0.078125 0.0625 -0.078125 C 0.0703125 -0.0664062 0.078125 -0.0625 0.078125 -0.0625 C 0.0859375 -0.0625 0.09375 -0.0546875 0.09375 -0.046875 C 0.101562 -0.046875 0.109375 -0.0390625 0.109375 -0.03125 C 0.109375 -0.03125 0.101562 -0.0234375 0.09375 -0.015625 C 0.09375 -0.015625 0.0859375 -0.0078125 0.078125 0 C 0.078125 0 0.0703125 0 0.0625 0 Z M 0.0625 0 "/></g></g></g><g fill="#ffffff" fill-opacity="1"><g transform="translate(20.335858, 23.070198)"><g><path d="M 0.0625 -0.078125 L 0.03125 -0.078125 L 0.03125 -0.03125 C 0.03125 -0.03125 0.03125 -0.0234375 0.03125 -0.015625 C 0.0390625 -0.015625 0.046875 -0.015625 0.046875 -0.015625 L 0.0625 -0.015625 L 0.0625 0 L 0.046875 0 C 0.0351562 0 0.0234375 0 0.015625 0 C 0.015625 -0.0078125 0.015625 -0.0195312 0.015625 -0.03125 L 0.015625 -0.078125 C 0.015625 -0.078125 0.0078125 -0.078125 0 -0.078125 L 0 -0.09375 C 0.0078125 -0.09375 0.015625 -0.09375 0.015625 -0.09375 L 0.015625 -0.125 C 0.015625 -0.125 0.0195312 -0.125 0.03125 -0.125 L 0.03125 -0.09375 L 0.0625 -0.09375 Z M 0.0625 -0.078125 "/></g></g></g><g fill="#ffffff" fill-opacity="1"><g transform="translate(20.406809, 23.070198)"><g><path d="M 0.0625 -0.09375 L 0.0625 -0.078125 C 0.0625 -0.078125 0.0546875 -0.078125 0.046875 -0.078125 C 0.046875 -0.078125 0.0390625 -0.0703125 0.03125 -0.0625 L 0.03125 0 L 0.015625 0 L 0.015625 -0.09375 L 0.03125 -0.09375 C 0.03125 -0.0820312 0.03125 -0.078125 0.03125 -0.078125 C 0.03125 -0.078125 0.03125 -0.0820312 0.03125 -0.09375 C 0.0390625 -0.09375 0.0507812 -0.09375 0.0625 -0.09375 Z M 0.0625 -0.09375 "/></g></g></g><g fill="#ffffff" fill-opacity="1"><g transform="translate(20.478144, 23.070198)"><g><path d="M 0.046875 -0.015625 C 0.0546875 -0.015625 0.0664062 -0.0195312 0.078125 -0.03125 L 0.09375 -0.03125 C 0.09375 -0.0195312 0.09375 -0.015625 0.09375 -0.015625 C 0.0820312 -0.015625 0.0703125 -0.0078125 0.0625 0 C 0.0625 0 0.0546875 0 0.046875 0 C 0.0351562 0 0.0234375 0 0.015625 0 C 0.015625 -0.0078125 0.015625 -0.015625 0.015625 -0.015625 C 0.015625 -0.0234375 0.015625 -0.0351562 0.015625 -0.046875 C 0.015625 -0.0546875 0.015625 -0.0664062 0.015625 -0.078125 C 0.0234375 -0.0859375 0.0351562 -0.09375 0.046875 -0.09375 C 0.0546875 -0.09375 0.0664062 -0.0859375 0.078125 -0.078125 C 0.0859375 -0.078125 0.09375 -0.0703125 0.09375 -0.0625 C 0.09375 -0.0507812 0.09375 -0.046875 0.09375 -0.046875 L 0.03125 -0.046875 C 0.03125 -0.0351562 0.03125 -0.03125 0.03125 -0.03125 C 0.03125 -0.03125 0.03125 -0.0234375 0.03125 -0.015625 C 0.0390625 -0.015625 0.046875 -0.015625 0.046875 -0.015625 Z M 0.046875 -0.078125 C 0.046875 -0.078125 0.0390625 -0.078125 0.03125 -0.078125 C 0.03125 -0.078125 0.03125 -0.0703125 0.03125 -0.0625 L 0.078125 -0.0625 C 0.078125 -0.0703125 0.0703125 -0.078125 0.0625 -0.078125 C 0.0625 -0.078125 0.0546875 -0.078125 0.046875 -0.078125 Z M 0.046875 -0.078125 "/></g></g></g><g fill="#ffffff" fill-opacity="1"><g transform="translate(20.581589, 23.070198)"><g><path d="M 0.046875 -0.09375 C 0.0546875 -0.09375 0.0625 -0.09375 0.0625 -0.09375 C 0.0703125 -0.09375 0.078125 -0.0859375 0.078125 -0.078125 C 0.0859375 -0.078125 0.09375 -0.0703125 0.09375 -0.0625 L 0.09375 0 C 0.09375 0 0.0859375 0 0.078125 0 C 0.078125 0 0.0703125 0 0.0625 0 L 0.0625 -0.015625 C 0.0625 -0.00390625 0.0546875 0 0.046875 0 C 0.046875 0 0.0390625 0 0.03125 0 C 0.03125 0 0.0234375 0 0.015625 0 C 0.00390625 -0.0078125 0 -0.0195312 0 -0.03125 C 0 -0.0390625 0.00390625 -0.046875 0.015625 -0.046875 C 0.0234375 -0.0546875 0.0351562 -0.0625 0.046875 -0.0625 L 0.0625 -0.0625 C 0.0625 -0.0703125 0.0625 -0.078125 0.0625 -0.078125 C 0.0625 -0.078125 0.0546875 -0.078125 0.046875 -0.078125 C 0.046875 -0.078125 0.0390625 -0.078125 0.03125 -0.078125 C 0.03125 -0.0664062 0.03125 -0.0625 0.03125 -0.0625 L 0.015625 -0.078125 C 0.0234375 -0.0859375 0.0351562 -0.09375 0.046875 -0.09375 Z M 0.046875 -0.015625 C 0.0546875 -0.0234375 0.0625 -0.03125 0.0625 -0.03125 L 0.0625 -0.046875 L 0.046875 -0.046875 C 0.0351562 -0.046875 0.03125 -0.0390625 0.03125 -0.03125 C 0.03125 -0.0195312 0.03125 -0.015625 0.03125 -0.015625 C 0.03125 -0.015625 0.0351562 -0.015625 0.046875 -0.015625 Z M 0.046875 -0.015625 "/></g></g></g><g fill="#ffffff" fill-opacity="1"><g transform="translate(20.680997, 23.070198)"><g><path d="M 0.109375 -0.09375 C 0.117188 -0.09375 0.125 -0.0859375 0.125 -0.078125 C 0.132812 -0.078125 0.140625 -0.0703125 0.140625 -0.0625 L 0.140625 0 L 0.125 0 L 0.125 -0.0625 C 0.125 -0.0703125 0.117188 -0.078125 0.109375 -0.078125 C 0.0976562 -0.078125 0.09375 -0.078125 0.09375 -0.078125 C 0.09375 -0.078125 0.09375 -0.0703125 0.09375 -0.0625 L 0.09375 0 L 0.078125 0 L 0.078125 -0.0625 C 0.078125 -0.0703125 0.0703125 -0.078125 0.0625 -0.078125 C 0.0625 -0.078125 0.0546875 -0.078125 0.046875 -0.078125 C 0.046875 -0.078125 0.0390625 -0.078125 0.03125 -0.078125 C 0.03125 -0.078125 0.03125 -0.0703125 0.03125 -0.0625 L 0.03125 0 L 0.015625 0 L 0.015625 -0.09375 L 0.03125 -0.09375 C 0.0390625 -0.09375 0.0507812 -0.09375 0.0625 -0.09375 C 0.0703125 -0.09375 0.078125 -0.0859375 0.078125 -0.078125 C 0.078125 -0.078125 0.0820312 -0.078125 0.09375 -0.078125 C 0.09375 -0.0859375 0.09375 -0.09375 0.09375 -0.09375 C 0.101562 -0.09375 0.109375 -0.09375 0.109375 -0.09375 Z M 0.109375 -0.09375 "/></g></g></g><g fill="#ffffff" fill-opacity="1"><g transform="translate(20.839818, 23.070198)"><g/></g></g><g fill="#ffffff" fill-opacity="1"><g transform="translate(20.878273, 23.070198)"><g><path d="M 0.109375 -0.09375 C 0.117188 -0.09375 0.125 -0.0859375 0.125 -0.078125 C 0.132812 -0.078125 0.140625 -0.0703125 0.140625 -0.0625 L 0.140625 0 L 0.125 0 L 0.125 -0.0625 C 0.125 -0.0703125 0.117188 -0.078125 0.109375 -0.078125 C 0.0976562 -0.078125 0.09375 -0.078125 0.09375 -0.078125 C 0.09375 -0.078125 0.09375 -0.0703125 0.09375 -0.0625 L 0.09375 0 L 0.078125 0 L 0.078125 -0.0625 C 0.078125 -0.0703125 0.0703125 -0.078125 0.0625 -0.078125 C 0.0625 -0.078125 0.0546875 -0.078125 0.046875 -0.078125 C 0.046875 -0.078125 0.0390625 -0.078125 0.03125 -0.078125 C 0.03125 -0.078125 0.03125 -0.0703125 0.03125 -0.0625 L 0.03125 0 L 0.015625 0 L 0.015625 -0.09375 L 0.03125 -0.09375 C 0.0390625 -0.09375 0.0507812 -0.09375 0.0625 -0.09375 C 0.0703125 -0.09375 0.078125 -0.0859375 0.078125 -0.078125 C 0.078125 -0.078125 0.0820312 -0.078125 0.09375 -0.078125 C 0.09375 -0.0859375 0.09375 -0.09375 0.09375 -0.09375 C 0.101562 -0.09375 0.109375 -0.09375 0.109375 -0.09375 Z M 0.109375 -0.09375 "/></g></g></g><g fill="#ffffff" fill-opacity="1"><g transform="translate(21.037095, 23.070198)"><g><path d="M 0.078125 -0.09375 L 0.09375 -0.09375 L 0.09375 0 L 0.078125 0 L 0.078125 -0.015625 C 0.078125 -0.015625 0.0703125 -0.015625 0.0625 -0.015625 C 0.0625 -0.00390625 0.0546875 0 0.046875 0 C 0.0351562 0 0.0234375 0 0.015625 0 C 0.015625 -0.0078125 0.015625 -0.0195312 0.015625 -0.03125 L 0.015625 -0.09375 L 0.03125 -0.09375 L 0.03125 -0.03125 C 0.03125 -0.03125 0.03125 -0.0234375 0.03125 -0.015625 C 0.0390625 -0.015625 0.046875 -0.015625 0.046875 -0.015625 C 0.0546875 -0.015625 0.0625 -0.015625 0.0625 -0.015625 C 0.0703125 -0.0234375 0.078125 -0.03125 0.078125 -0.03125 Z M 0.078125 -0.09375 "/></g></g></g><g fill="#ffffff" fill-opacity="1"><g transform="translate(21.14054, 23.070198)"><g><path d="M 0.046875 0 C 0.0351562 0 0.0234375 0 0.015625 0 C 0.015625 -0.0078125 0.015625 -0.0195312 0.015625 -0.03125 L 0.03125 -0.03125 C 0.03125 -0.0195312 0.03125 -0.015625 0.03125 -0.015625 C 0.03125 -0.015625 0.0351562 -0.015625 0.046875 -0.015625 C 0.0546875 -0.015625 0.0625 -0.015625 0.0625 -0.015625 C 0.0625 -0.015625 0.0625 -0.0195312 0.0625 -0.03125 C 0.0625 -0.03125 0.0546875 -0.03125 0.046875 -0.03125 C 0.0351562 -0.0390625 0.0234375 -0.046875 0.015625 -0.046875 C 0.015625 -0.0546875 0.015625 -0.0664062 0.015625 -0.078125 C 0.0234375 -0.0859375 0.0351562 -0.09375 0.046875 -0.09375 C 0.0546875 -0.09375 0.0625 -0.09375 0.0625 -0.09375 C 0.0703125 -0.09375 0.078125 -0.0859375 0.078125 -0.078125 C 0.078125 -0.0664062 0.078125 -0.0625 0.078125 -0.0625 L 0.0625 -0.0625 L 0.0625 -0.078125 C 0.0625 -0.078125 0.0546875 -0.078125 0.046875 -0.078125 C 0.0351562 -0.078125 0.03125 -0.078125 0.03125 -0.078125 C 0.03125 -0.0664062 0.03125 -0.0625 0.03125 -0.0625 C 0.03125 -0.0625 0.0351562 -0.0625 0.046875 -0.0625 C 0.0546875 -0.0507812 0.0625 -0.046875 0.0625 -0.046875 C 0.0703125 -0.046875 0.078125 -0.0390625 0.078125 -0.03125 C 0.0859375 -0.03125 0.09375 -0.03125 0.09375 -0.03125 C 0.09375 -0.0195312 0.0859375 -0.0078125 0.078125 0 C 0.0664062 0 0.0546875 0 0.046875 0 Z M 0.046875 0 "/></g></g></g><g fill="#ffffff" fill-opacity="1"><g transform="translate(21.234371, 23.070198)"><g><path d="M 0.03125 -0.109375 C 0.0195312 -0.109375 0.015625 -0.109375 0.015625 -0.109375 C 0.015625 -0.117188 0.015625 -0.125 0.015625 -0.125 C 0.015625 -0.132812 0.0195312 -0.140625 0.03125 -0.140625 C 0.03125 -0.140625 0.03125 -0.132812 0.03125 -0.125 C 0.03125 -0.125 0.03125 -0.117188 0.03125 -0.109375 Z M 0.015625 0 L 0.015625 -0.09375 L 0.03125 -0.09375 L 0.03125 0 Z M 0.015625 0 "/></g></g></g><g fill="#ffffff" fill-opacity="1"><g transform="translate(21.282633, 23.070198)"><g><path d="M 0.046875 0 C 0.0351562 0 0.0234375 0 0.015625 0 C 0.015625 -0.0078125 0.015625 -0.0195312 0.015625 -0.03125 C 0.015625 -0.03125 0.015625 -0.0351562 0.015625 -0.046875 C 0.015625 -0.0546875 0.015625 -0.0664062 0.015625 -0.078125 C 0.0234375 -0.0859375 0.0351562 -0.09375 0.046875 -0.09375 C 0.0546875 -0.09375 0.0664062 -0.0859375 0.078125 -0.078125 C 0.0859375 -0.078125 0.09375 -0.078125 0.09375 -0.078125 C 0.09375 -0.078125 0.09375 -0.0703125 0.09375 -0.0625 L 0.078125 -0.0625 C 0.078125 -0.0703125 0.0703125 -0.078125 0.0625 -0.078125 C 0.0625 -0.078125 0.0546875 -0.078125 0.046875 -0.078125 C 0.046875 -0.078125 0.0390625 -0.078125 0.03125 -0.078125 C 0.03125 -0.078125 0.03125 -0.0703125 0.03125 -0.0625 C 0.03125 -0.0625 0.03125 -0.0546875 0.03125 -0.046875 C 0.03125 -0.0351562 0.03125 -0.03125 0.03125 -0.03125 C 0.03125 -0.03125 0.03125 -0.0234375 0.03125 -0.015625 C 0.0390625 -0.015625 0.046875 -0.015625 0.046875 -0.015625 C 0.0546875 -0.015625 0.0625 -0.015625 0.0625 -0.015625 C 0.0703125 -0.0234375 0.078125 -0.03125 0.078125 -0.03125 L 0.09375 -0.03125 C 0.09375 -0.0195312 0.0859375 -0.0078125 0.078125 0 C 0.0664062 0 0.0546875 0 0.046875 0 Z M 0.046875 0 "/></g></g></g><g fill="#ffffff" fill-opacity="1"><g transform="translate(21.383771, 23.070198)"><g/></g></g><g fill="#ffffff" fill-opacity="1"><g transform="translate(21.422227, 23.070198)"><g><path d="M 0.046875 -0.09375 C 0.0546875 -0.09375 0.0625 -0.09375 0.0625 -0.09375 C 0.0703125 -0.09375 0.078125 -0.0859375 0.078125 -0.078125 C 0.0859375 -0.078125 0.09375 -0.0703125 0.09375 -0.0625 L 0.09375 0 C 0.09375 0 0.0859375 0 0.078125 0 C 0.078125 0 0.0703125 0 0.0625 0 L 0.0625 -0.015625 C 0.0625 -0.00390625 0.0546875 0 0.046875 0 C 0.046875 0 0.0390625 0 0.03125 0 C 0.03125 0 0.0234375 0 0.015625 0 C 0.00390625 -0.0078125 0 -0.0195312 0 -0.03125 C 0 -0.0390625 0.00390625 -0.046875 0.015625 -0.046875 C 0.0234375 -0.0546875 0.0351562 -0.0625 0.046875 -0.0625 L 0.0625 -0.0625 C 0.0625 -0.0703125 0.0625 -0.078125 0.0625 -0.078125 C 0.0625 -0.078125 0.0546875 -0.078125 0.046875 -0.078125 C 0.046875 -0.078125 0.0390625 -0.078125 0.03125 -0.078125 C 0.03125 -0.0664062 0.03125 -0.0625 0.03125 -0.0625 L 0.015625 -0.078125 C 0.0234375 -0.0859375 0.0351562 -0.09375 0.046875 -0.09375 Z M 0.046875 -0.015625 C 0.0546875 -0.0234375 0.0625 -0.03125 0.0625 -0.03125 L 0.0625 -0.046875 L 0.046875 -0.046875 C 0.0351562 -0.046875 0.03125 -0.0390625 0.03125 -0.03125 C 0.03125 -0.0195312 0.03125 -0.015625 0.03125 -0.015625 C 0.03125 -0.015625 0.0351562 -0.015625 0.046875 -0.015625 Z M 0.046875 -0.015625 "/></g></g></g><g fill="#ffffff" fill-opacity="1"><g transform="translate(21.521634, 23.070198)"><g><path d="M 0.0625 -0.09375 C 0.0703125 -0.09375 0.078125 -0.0859375 0.078125 -0.078125 C 0.0859375 -0.078125 0.09375 -0.0703125 0.09375 -0.0625 L 0.09375 0 L 0.078125 0 L 0.078125 -0.0625 C 0.078125 -0.0703125 0.0703125 -0.078125 0.0625 -0.078125 C 0.0625 -0.078125 0.0546875 -0.078125 0.046875 -0.078125 C 0.046875 -0.078125 0.0390625 -0.078125 0.03125 -0.078125 C 0.03125 -0.078125 0.03125 -0.0703125 0.03125 -0.0625 L 0.03125 0 L 0.015625 0 L 0.015625 -0.09375 L 0.03125 -0.09375 C 0.0390625 -0.09375 0.0507812 -0.09375 0.0625 -0.09375 Z M 0.0625 -0.09375 "/></g></g></g><g fill="#ffffff" fill-opacity="1"><g transform="translate(21.625848, 23.070198)"><g><path d="M 0.015625 0.03125 C 0.015625 0.03125 0.015625 0.0234375 0.015625 0.015625 C 0.0234375 0.015625 0.03125 0.015625 0.03125 0.015625 C 0.03125 0.015625 0.03125 0.0078125 0.03125 0 L 0 -0.09375 L 0.015625 -0.09375 C 0.0234375 -0.09375 0.03125 -0.09375 0.03125 -0.09375 L 0.046875 -0.03125 L 0.0625 -0.09375 C 0.0625 -0.09375 0.0664062 -0.09375 0.078125 -0.09375 C 0.0859375 -0.09375 0.09375 -0.09375 0.09375 -0.09375 L 0.046875 0 C 0.046875 0.0078125 0.0390625 0.015625 0.03125 0.015625 C 0.03125 0.0234375 0.03125 0.03125 0.03125 0.03125 C 0.03125 0.03125 0.0234375 0.03125 0.015625 0.03125 Z M 0.015625 0.03125 "/></g></g></g><g fill="#ffffff" fill-opacity="1"><g transform="translate(21.717373, 23.070198)"><g><path d="M 0.03125 0 L 0 -0.09375 C 0 -0.09375 0.00390625 -0.09375 0.015625 -0.09375 C 0.0234375 -0.09375 0.03125 -0.09375 0.03125 -0.09375 L 0.046875 -0.03125 L 0.0625 -0.09375 L 0.078125 -0.09375 L 0.09375 -0.03125 L 0.109375 -0.09375 C 0.117188 -0.09375 0.125 -0.09375 0.125 -0.09375 L 0.140625 -0.09375 L 0.109375 0 L 0.09375 0 L 0.078125 -0.0625 C 0.078125 -0.0625 0.0703125 -0.0625 0.0625 -0.0625 L 0.046875 0 Z M 0.03125 0 "/></g></g></g><g fill="#ffffff" fill-opacity="1"><g transform="translate(21.860235, 23.070198)"><g><path d="M 0.0625 -0.09375 C 0.0703125 -0.09375 0.078125 -0.0859375 0.078125 -0.078125 C 0.0859375 -0.078125 0.09375 -0.0703125 0.09375 -0.0625 L 0.09375 0 L 0.078125 0 L 0.078125 -0.0625 C 0.078125 -0.0703125 0.0703125 -0.078125 0.0625 -0.078125 C 0.0625 -0.078125 0.0546875 -0.078125 0.046875 -0.078125 C 0.046875 -0.078125 0.0390625 -0.078125 0.03125 -0.078125 C 0.03125 -0.078125 0.03125 -0.0703125 0.03125 -0.0625 L 0.03125 0 L 0.015625 0 L 0.015625 -0.125 C 0.015625 -0.132812 0.015625 -0.140625 0.015625 -0.140625 L 0.03125 -0.140625 C 0.03125 -0.140625 0.03125 -0.132812 0.03125 -0.125 L 0.03125 -0.09375 C 0.0390625 -0.09375 0.0507812 -0.09375 0.0625 -0.09375 Z M 0.0625 -0.09375 "/></g></g></g><g fill="#ffffff" fill-opacity="1"><g transform="translate(21.964449, 23.070198)"><g><path d="M 0.046875 -0.015625 C 0.0546875 -0.015625 0.0664062 -0.0195312 0.078125 -0.03125 L 0.09375 -0.03125 C 0.09375 -0.0195312 0.09375 -0.015625 0.09375 -0.015625 C 0.0820312 -0.015625 0.0703125 -0.0078125 0.0625 0 C 0.0625 0 0.0546875 0 0.046875 0 C 0.0351562 0 0.0234375 0 0.015625 0 C 0.015625 -0.0078125 0.015625 -0.015625 0.015625 -0.015625 C 0.015625 -0.0234375 0.015625 -0.0351562 0.015625 -0.046875 C 0.015625 -0.0546875 0.015625 -0.0664062 0.015625 -0.078125 C 0.0234375 -0.0859375 0.0351562 -0.09375 0.046875 -0.09375 C 0.0546875 -0.09375 0.0664062 -0.0859375 0.078125 -0.078125 C 0.0859375 -0.078125 0.09375 -0.0703125 0.09375 -0.0625 C 0.09375 -0.0507812 0.09375 -0.046875 0.09375 -0.046875 L 0.03125 -0.046875 C 0.03125 -0.0351562 0.03125 -0.03125 0.03125 -0.03125 C 0.03125 -0.03125 0.03125 -0.0234375 0.03125 -0.015625 C 0.0390625 -0.015625 0.046875 -0.015625 0.046875 -0.015625 Z M 0.046875 -0.078125 C 0.046875 -0.078125 0.0390625 -0.078125 0.03125 -0.078125 C 0.03125 -0.078125 0.03125 -0.0703125 0.03125 -0.0625 L 0.078125 -0.0625 C 0.078125 -0.0703125 0.0703125 -0.078125 0.0625 -0.078125 C 0.0625 -0.078125 0.0546875 -0.078125 0.046875 -0.078125 Z M 0.046875 -0.078125 "/></g></g></g><g fill="#ffffff" fill-opacity="1"><g transform="translate(22.067895, 23.070198)"><g><path d="M 0.0625 -0.09375 L 0.0625 -0.078125 C 0.0625 -0.078125 0.0546875 -0.078125 0.046875 -0.078125 C 0.046875 -0.078125 0.0390625 -0.0703125 0.03125 -0.0625 L 0.03125 0 L 0.015625 0 L 0.015625 -0.09375 L 0.03125 -0.09375 C 0.03125 -0.0820312 0.03125 -0.078125 0.03125 -0.078125 C 0.03125 -0.078125 0.03125 -0.0820312 0.03125 -0.09375 C 0.0390625 -0.09375 0.0507812 -0.09375 0.0625 -0.09375 Z M 0.0625 -0.09375 "/></g></g></g><g fill="#ffffff" fill-opacity="1"><g transform="translate(22.13923, 23.070198)"><g><path d="M 0.046875 -0.015625 C 0.0546875 -0.015625 0.0664062 -0.0195312 0.078125 -0.03125 L 0.09375 -0.03125 C 0.09375 -0.0195312 0.09375 -0.015625 0.09375 -0.015625 C 0.0820312 -0.015625 0.0703125 -0.0078125 0.0625 0 C 0.0625 0 0.0546875 0 0.046875 0 C 0.0351562 0 0.0234375 0 0.015625 0 C 0.015625 -0.0078125 0.015625 -0.015625 0.015625 -0.015625 C 0.015625 -0.0234375 0.015625 -0.0351562 0.015625 -0.046875 C 0.015625 -0.0546875 0.015625 -0.0664062 0.015625 -0.078125 C 0.0234375 -0.0859375 0.0351562 -0.09375 0.046875 -0.09375 C 0.0546875 -0.09375 0.0664062 -0.0859375 0.078125 -0.078125 C 0.0859375 -0.078125 0.09375 -0.0703125 0.09375 -0.0625 C 0.09375 -0.0507812 0.09375 -0.046875 0.09375 -0.046875 L 0.03125 -0.046875 C 0.03125 -0.0351562 0.03125 -0.03125 0.03125 -0.03125 C 0.03125 -0.03125 0.03125 -0.0234375 0.03125 -0.015625 C 0.0390625 -0.015625 0.046875 -0.015625 0.046875 -0.015625 Z M 0.046875 -0.078125 C 0.046875 -0.078125 0.0390625 -0.078125 0.03125 -0.078125 C 0.03125 -0.078125 0.03125 -0.0703125 0.03125 -0.0625 L 0.078125 -0.0625 C 0.078125 -0.0703125 0.0703125 -0.078125 0.0625 -0.078125 C 0.0625 -0.078125 0.0546875 -0.078125 0.046875 -0.078125 Z M 0.046875 -0.078125 "/></g></g></g><path fill="#2941ab" d="M 11.761719 12.269531 C 10.65625 12.269531 9.761719 13.054688 9.761719 14.019531 C 9.761719 13.054688 8.871094 12.269531 7.765625 12.269531 C 6.839844 12.269531 5.867188 13.042969 5.8125 13.964844 C 5.738281 15.195312 6.636719 16.347656 7.472656 17.148438 C 8.070312 17.722656 8.746094 18.257812 9.433594 18.722656 C 9.460938 18.738281 9.722656 18.941406 9.761719 18.917969 C 11.402344 18 13.757812 16.113281 13.757812 14.019531 C 13.757812 13.054688 12.863281 12.269531 11.761719 12.269531 Z M 11.761719 12.269531 " fill-opacity="1" fill-rule="nonzero"/><path fill="#0c008f" d="M 9.753906 19.1875 C 9.644531 19.1875 9.546875 19.136719 9.296875 18.953125 L 9.277344 18.941406 C 8.546875 18.449219 7.875 17.910156 7.285156 17.34375 C 6.066406 16.171875 5.480469 15.027344 5.542969 13.949219 C 5.605469 12.929688 6.664062 12.003906 7.765625 12.003906 C 8.628906 12.003906 9.378906 12.433594 9.761719 13.066406 C 9.867188 12.890625 10.003906 12.726562 10.171875 12.582031 C 10.597656 12.207031 11.160156 12.003906 11.761719 12.003906 C 12.359375 12.003906 12.921875 12.207031 13.351562 12.582031 C 13.785156 12.964844 14.027344 13.472656 14.027344 14.019531 C 14.027344 16.703125 10.585938 18.765625 9.894531 19.152344 C 9.851562 19.175781 9.804688 19.1875 9.753906 19.1875 Z M 7.765625 12.539062 C 6.945312 12.539062 6.125 13.238281 6.082031 13.980469 C 6.011719 15.121094 6.898438 16.226562 7.65625 16.957031 C 8.21875 17.492188 8.882812 18.027344 9.582031 18.496094 C 9.589844 18.503906 9.597656 18.511719 9.613281 18.523438 C 9.675781 18.566406 9.71875 18.59375 9.75 18.617188 C 11.503906 17.605469 13.488281 15.828125 13.488281 14.019531 C 13.488281 13.632812 13.316406 13.265625 12.996094 12.984375 C 12.667969 12.699219 12.230469 12.539062 11.761719 12.539062 C 11.292969 12.539062 10.851562 12.699219 10.523438 12.984375 C 10.207031 13.265625 10.03125 13.632812 10.03125 14.019531 C 10.03125 14.167969 9.910156 14.289062 9.761719 14.289062 C 9.613281 14.289062 9.492188 14.167969 9.492188 14.019531 C 9.492188 13.203125 8.71875 12.539062 7.765625 12.539062 Z M 7.765625 12.539062 " fill-opacity="1" fill-rule="nonzero"/><g clip-path="url(#id1)"><path fill="#2941ab" d="M 14.742188 9.988281 C 12.003906 7.25 7.5625 7.25 4.824219 9.988281 C 2.328125 12.484375 2.105469 16.394531 4.164062 19.140625 L 9.78125 27.511719 L 15.242188 19.347656 C 16.296875 18.042969 16.816406 16.449219 16.796875 14.863281 C 16.773438 13.09375 16.089844 11.335938 14.742188 9.988281 Z M 13.933594 19.097656 C 13.855469 19.175781 13.777344 19.25 13.695312 19.324219 C 12.433594 20.453125 10.800781 20.941406 9.21875 20.789062 C 7.949219 20.667969 6.710938 20.132812 5.726562 19.1875 C 5.695312 19.160156 5.664062 19.128906 5.632812 19.097656 C 3.339844 16.804688 3.339844 13.089844 5.632812 10.796875 C 7.925781 8.503906 11.644531 8.503906 13.933594 10.796875 C 15.0625 11.925781 15.636719 13.398438 15.652344 14.875 C 15.671875 16.402344 15.101562 17.933594 13.933594 19.097656 Z M 13.933594 19.097656 " fill-opacity="1" fill-rule="nonzero"/></g><g clip-path="url(#id2)"><path fill="#0c008f" d="M 9.78125 27.777344 C 9.695312 27.777344 9.609375 27.734375 9.558594 27.660156 L 3.941406 19.292969 C 3.9375 19.289062 3.9375 19.289062 3.9375 19.289062 C 2.90625 17.902344 2.402344 16.1875 2.519531 14.453125 C 2.636719 12.699219 3.386719 11.042969 4.636719 9.796875 C 6.011719 8.421875 7.839844 7.667969 9.785156 7.667969 C 11.730469 7.667969 13.558594 8.421875 14.933594 9.796875 C 16.285156 11.148438 17.039062 12.945312 17.0625 14.859375 C 17.085938 16.546875 16.515625 18.199219 15.460938 19.507812 L 10.007812 27.660156 C 9.957031 27.734375 9.871094 27.777344 9.785156 27.777344 C 9.78125 27.777344 9.78125 27.777344 9.78125 27.777344 Z M 4.394531 19.007812 L 9.78125 27.027344 L 15.019531 19.199219 C 15.023438 19.191406 15.03125 19.1875 15.035156 19.179688 C 16.015625 17.964844 16.546875 16.433594 16.527344 14.863281 C 16.503906 13.09375 15.804688 11.429688 14.554688 10.179688 C 13.28125 8.90625 11.585938 8.203125 9.785156 8.203125 C 7.984375 8.203125 6.289062 8.90625 5.015625 10.179688 C 2.65625 12.535156 2.382812 16.316406 4.378906 18.980469 C 4.386719 18.988281 4.390625 18.996094 4.394531 19.007812 Z M 9.78125 21.085938 C 9.585938 21.085938 9.386719 21.074219 9.191406 21.058594 C 7.808594 20.921875 6.542969 20.34375 5.539062 19.382812 C 5.507812 19.351562 5.472656 19.320312 5.441406 19.289062 C 3.046875 16.894531 3.046875 13 5.441406 10.605469 C 6.601562 9.445312 8.144531 8.808594 9.785156 8.808594 C 11.425781 8.808594 12.964844 9.445312 14.125 10.605469 C 15.265625 11.746094 15.902344 13.261719 15.921875 14.871094 C 15.941406 16.539062 15.304688 18.109375 14.125 19.289062 C 14.050781 19.363281 13.96875 19.441406 13.875 19.523438 C 12.75 20.53125 11.296875 21.085938 9.78125 21.085938 Z M 9.785156 9.34375 C 8.289062 9.34375 6.878906 9.929688 5.820312 10.984375 C 3.636719 13.171875 3.636719 16.722656 5.820312 18.90625 C 5.851562 18.9375 5.878906 18.964844 5.910156 18.992188 C 6.828125 19.871094 7.980469 20.398438 9.242188 20.523438 C 9.421875 20.539062 9.601562 20.546875 9.78125 20.546875 C 11.164062 20.546875 12.488281 20.042969 13.515625 19.125 C 13.601562 19.046875 13.675781 18.976562 13.746094 18.910156 C 14.820312 17.832031 15.402344 16.402344 15.386719 14.878906 C 15.367188 13.40625 14.785156 12.023438 13.746094 10.984375 C 12.6875 9.929688 11.28125 9.34375 9.785156 9.34375 Z M 9.785156 9.34375 " fill-opacity="1" fill-rule="nonzero"/></g><path fill="#0c008f" d="M 14.199219 16.984375 C 14.171875 16.984375 14.148438 16.980469 14.125 16.96875 C 14.027344 16.925781 13.980469 16.8125 14.023438 16.71875 C 14.027344 16.699219 14.039062 16.683594 14.050781 16.65625 C 14.097656 16.5625 14.195312 16.367188 14.3125 15.890625 C 14.335938 15.785156 14.441406 15.722656 14.542969 15.75 C 14.648438 15.773438 14.710938 15.878906 14.683594 15.980469 C 14.558594 16.5 14.445312 16.722656 14.394531 16.828125 C 14.386719 16.84375 14.378906 16.855469 14.375 16.867188 C 14.34375 16.941406 14.273438 16.984375 14.199219 16.984375 Z M 14.199219 16.984375 " fill-opacity="1" fill-rule="nonzero"/><path fill="#0c008f" d="M 14.710938 14.9375 C 14.707031 14.9375 14.703125 14.9375 14.699219 14.9375 C 14.59375 14.929688 14.511719 14.835938 14.519531 14.730469 C 14.710938 11.980469 11.988281 10.929688 11.960938 10.917969 C 11.863281 10.882812 11.8125 10.769531 11.847656 10.671875 C 11.886719 10.574219 11.996094 10.523438 12.09375 10.558594 C 12.125 10.570312 15.109375 11.726562 14.902344 14.757812 C 14.894531 14.859375 14.8125 14.9375 14.710938 14.9375 Z M 14.710938 14.9375 " fill-opacity="1" fill-rule="nonzero"/><path fill="#2941ab" d="M 7.40625 22.441406 L 8.609375 24.269531 " fill-opacity="1" fill-rule="nonzero"/><path fill="#0c008f" d="M 8.609375 24.460938 C 8.546875 24.460938 8.488281 24.433594 8.449219 24.375 L 7.246094 22.546875 C 7.1875 22.457031 7.214844 22.339844 7.300781 22.28125 C 7.390625 22.222656 7.507812 22.246094 7.566406 22.335938 L 8.769531 24.164062 C 8.828125 24.253906 8.804688 24.371094 8.714844 24.429688 C 8.683594 24.453125 8.648438 24.460938 8.609375 24.460938 Z M 8.609375 24.460938 " fill-opacity="1" fill-rule="nonzero"/><path fill="#2941ab" d="M 6.707031 21.296875 L 6.859375 21.53125 " fill-opacity="1" fill-rule="nonzero"/><path fill="#0c008f" d="M 6.859375 21.722656 C 6.792969 21.722656 6.734375 21.691406 6.695312 21.636719 L 6.546875 21.402344 C 6.488281 21.3125 6.515625 21.195312 6.605469 21.136719 C 6.695312 21.078125 6.8125 21.105469 6.871094 21.195312 L 7.019531 21.429688 C 7.078125 21.519531 7.050781 21.636719 6.960938 21.695312 C 6.929688 21.714844 6.894531 21.722656 6.859375 21.722656 Z M 6.859375 21.722656 " fill-opacity="1" fill-rule="nonzero"/><g clip-path="url(#id3)"><path fill="#f8f9f0" d="M 9.800781 8.855469 C 6.371094 8.855469 3.585938 11.636719 3.585938 15.070312 C 3.585938 18.5 6.371094 21.285156 9.800781 21.285156 C 13.234375 21.285156 16.019531 18.5 16.019531 15.070312 C 16.019531 11.636719 13.234375 8.855469 9.800781 8.855469 " fill-opacity="1" fill-rule="nonzero"/></g><path fill="#1cd760" d="M 11.746094 17.601562 L 10.882812 17.601562 L 10.882812 16.367188 L 11.746094 16.367188 Z M 10.601562 17.601562 L 9.738281 17.601562 L 9.738281 15.351562 L 10.601562 15.351562 Z M 9.457031 17.601562 L 8.59375 17.601562 L 8.59375 14.078125 L 9.457031 14.078125 Z M 8.3125 17.601562 L 7.449219 17.601562 L 7.449219 13.0625 L 8.3125 13.0625 Z M 9.601562 11.144531 C 7.429688 11.144531 5.671875 12.902344 5.671875 15.074219 C 5.671875 17.242188 7.429688 19 9.601562 19 C 11.769531 19 13.527344 17.242188 13.527344 15.074219 C 13.527344 12.902344 11.769531 11.144531 9.601562 11.144531 " fill-opacity="1" fill-rule="nonzero"/></svg>